<svg width="1330" height="197" viewBox="0 0 1330 197" fill="none" xmlns="http://www.w3.org/2000/svg">
<path d="M294.835 188.021C241.347 187.311 206.343 141.8 206.503 100" stroke="#E3E3E3" stroke-width="5"/>
<path d="M110.835 8.33011C57.3473 9.04045 22.3432 54.5512 22.5031 96.3513" stroke="#E3E3E3" stroke-width="5"/>
<path d="M118.241 8.33011C171.729 9.04045 206.733 54.5512 206.573 96.3513" stroke="#E3E3E3" stroke-width="5"/>
<path d="M301.241 188.021C354.729 187.311 389.733 141.8 389.573 100" stroke="#E3E3E3" stroke-width="5"/>
<path d="M661.835 188.021C608.347 187.311 573.343 141.8 573.503 100" stroke="#E3E3E3" stroke-width="5"/>
<path d="M477.835 8.33011C424.347 9.04045 389.343 54.5512 389.503 96.3513" stroke="#E3E3E3" stroke-width="5"/>
<path d="M485.241 8.33011C538.729 9.04045 573.733 54.5512 573.573 96.3513" stroke="#E3E3E3" stroke-width="5"/>
<path d="M668.241 188.021C721.729 187.311 756.733 141.8 756.573 100" stroke="#E3E3E3" stroke-width="5"/>
<path d="M1028.83 188.021C975.347 187.311 940.343 141.8 940.503 100" stroke="#E3E3E3" stroke-width="5"/>
<path d="M844.835 8.33011C791.347 9.04045 756.343 54.5512 756.503 96.3513" stroke="#E3E3E3" stroke-width="5"/>
<path d="M852.241 8.33011C905.729 9.04045 940.733 54.5512 940.573 96.3513" stroke="#E3E3E3" stroke-width="5"/>
<path d="M1035.24 188.021C1088.73 187.311 1123.73 141.8 1123.57 100" stroke="#E3E3E3" stroke-width="5"/>
<path d="M1211.83 8.33011C1158.35 9.04045 1123.34 54.5512 1123.5 96.3513" stroke="#E3E3E3" stroke-width="5"/>
<path d="M1219.24 8.33011C1272.73 9.04045 1307.73 54.5512 1307.57 96.3513" stroke="#E3E3E3" stroke-width="5"/>
</svg>
