<svg width="14" height="12" viewBox="0 0 14 12" fill="none" xmlns="http://www.w3.org/2000/svg">
<path d="M0.650879 0.915887C0.650879 0.567544 0.939965 0.285156 1.28059 0.285156H12.7196C13.0674 0.285156 13.3493 0.567664 13.3493 0.915887V11.083C13.3493 11.4313 13.0602 11.7137 12.7196 11.7137H1.28059C0.932815 11.7137 0.650879 11.4313 0.650879 11.083V0.915887ZM7.00009 7.9042C5.94809 7.9042 5.09532 7.05144 5.09532 5.99944C5.09532 4.94744 5.94809 4.09468 7.00009 4.09468C8.05209 4.09468 8.90485 4.94744 8.90485 5.99944C8.90485 7.05144 8.05209 7.9042 7.00009 7.9042ZM7.00009 9.17405C8.75336 9.17405 10.1747 7.75271 10.1747 5.99944C10.1747 4.24616 8.75336 2.82484 7.00009 2.82484C5.2468 2.82484 3.82548 4.24616 3.82548 5.99944C3.82548 7.75271 5.2468 9.17405 7.00009 9.17405ZM10.8096 1.555V2.82484H12.0795V1.555H10.8096Z" fill="#2C2E2F" fill-opacity="0.7"/>
</svg>
