<svg width="1330" height="197" viewBox="0 0 1330 197" fill="none" xmlns="http://www.w3.org/2000/svg">
<rect x="42" y="23.9258" width="145" height="145" rx="72.5" fill="#FDFDFD" stroke="url(#paint0_linear_4_154)" stroke-width="8"/>
<rect x="409" y="23.9258" width="145" height="145" rx="72.5" fill="#FDFDFD" stroke="url(#paint1_linear_4_154)" stroke-width="8"/>
<rect x="226" y="23.9258" width="145" height="145" rx="72.5" fill="#FDFDFD" stroke="url(#paint2_linear_4_154)" stroke-width="8"/>
<rect x="593" y="23.9258" width="145" height="145" rx="72.5" fill="#FDFDFD" stroke="url(#paint3_linear_4_154)" stroke-width="8"/>
<rect x="776" y="23.9258" width="145" height="145" rx="72.5" fill="#FDFDFD" stroke="url(#paint4_linear_4_154)" stroke-width="8"/>
<rect x="960" y="23.9258" width="145" height="145" rx="72.5" fill="#FDFDFD" stroke="url(#paint5_linear_4_154)" stroke-width="8"/>
<rect x="1143" y="23.9258" width="145" height="145" rx="72.5" fill="#FDFDFD" stroke="url(#paint6_linear_4_154)" stroke-width="8"/>
<path d="M79.7775 93.9258V80.8349H88.1639V82.8228H82.149V86.3768H87.5886V88.3647H82.149V93.9258H79.7775ZM93.848 94.1175C92.8636 94.1175 92.0135 93.913 91.2976 93.5039C90.5859 93.0906 90.0384 92.5067 89.6548 91.7525C89.2713 90.994 89.0795 90.1012 89.0795 89.0742C89.0795 88.0643 89.2713 87.1779 89.6548 86.4151C90.0426 85.6481 90.5838 85.0515 91.2784 84.6254C91.973 84.195 92.7891 83.9798 93.7266 83.9798C94.3317 83.9798 94.9027 84.0778 95.4396 84.2738C95.9808 84.4656 96.4581 84.7638 96.8714 85.1687C97.2891 85.5735 97.6172 86.0891 97.8558 86.7156C98.0945 87.3377 98.2138 88.0792 98.2138 88.94V89.6495H90.1662V88.0898H95.9957C95.9915 87.6467 95.8956 87.2525 95.7081 86.9073C95.5206 86.5579 95.2585 86.283 94.9219 86.0827C94.5895 85.8825 94.2017 85.7823 93.7585 85.7823C93.2855 85.7823 92.87 85.8974 92.5121 86.1275C92.1541 86.3533 91.875 86.6516 91.6747 87.0224C91.4787 87.3888 91.3786 87.7915 91.3743 88.2305V89.592C91.3743 90.163 91.4787 90.6531 91.6875 91.0621C91.8963 91.467 92.1882 91.7781 92.5632 91.9954C92.9382 92.2085 93.3771 92.315 93.88 92.315C94.2166 92.315 94.5213 92.2681 94.794 92.1744C95.0668 92.0763 95.3033 91.9336 95.5036 91.7461C95.7038 91.5586 95.8551 91.3263 95.9574 91.0494L98.1179 91.2923C97.9815 91.8633 97.7216 92.3619 97.3381 92.788C96.9588 93.2099 96.473 93.538 95.8807 93.7724C95.2884 94.0025 94.6108 94.1175 93.848 94.1175ZM107.931 86.7028L105.822 86.9329C105.762 86.7198 105.658 86.5195 105.509 86.332C105.364 86.1445 105.168 85.9933 104.921 85.8782C104.673 85.7631 104.371 85.7056 104.013 85.7056C103.531 85.7056 103.127 85.81 102.798 86.0188C102.475 86.2276 102.315 86.4982 102.319 86.8306C102.315 87.1161 102.419 87.3484 102.632 87.5273C102.85 87.7063 103.208 87.8533 103.706 87.9684L105.381 88.3263C106.31 88.5266 107 88.8441 107.452 89.2788C107.908 89.7134 108.138 90.2823 108.142 90.9854C108.138 91.6033 107.957 92.1488 107.599 92.6218C107.245 93.0906 106.753 93.457 106.122 93.7212C105.492 93.9854 104.767 94.1175 103.949 94.1175C102.747 94.1175 101.78 93.8661 101.047 93.3633C100.314 92.8562 99.8773 92.1509 99.7367 91.2475L101.993 91.0302C102.095 91.4734 102.313 91.8079 102.645 92.0337C102.977 92.2596 103.41 92.3725 103.943 92.3725C104.492 92.3725 104.933 92.2596 105.266 92.0337C105.602 91.8079 105.771 91.5288 105.771 91.1964C105.771 90.9151 105.662 90.6829 105.445 90.4996C105.232 90.3164 104.899 90.1758 104.448 90.0778L102.773 89.7262C101.831 89.5302 101.134 89.1999 100.683 88.7354C100.231 88.2667 100.007 87.6744 100.012 86.9585C100.007 86.3533 100.171 85.8292 100.504 85.386C100.84 84.9386 101.307 84.5934 101.904 84.3505C102.504 84.1033 103.197 83.9798 103.981 83.9798C105.132 83.9798 106.037 84.2248 106.698 84.7148C107.362 85.2049 107.774 85.8675 107.931 86.7028ZM114.953 84.1076V85.8974H109.309V84.1076H114.953ZM110.702 81.7553H113.016V90.9727C113.016 91.2837 113.063 91.5224 113.157 91.6886C113.255 91.8505 113.383 91.9613 113.54 92.021C113.698 92.0806 113.873 92.1104 114.064 92.1104C114.209 92.1104 114.341 92.0998 114.461 92.0785C114.584 92.0572 114.678 92.038 114.742 92.021L115.132 93.8299C115.008 93.8725 114.831 93.9194 114.601 93.9705C114.376 94.0217 114.099 94.0515 113.77 94.06C113.191 94.0771 112.669 93.9897 112.204 93.7979C111.74 93.6019 111.371 93.2994 111.099 92.8903C110.83 92.4812 110.698 91.9698 110.702 91.3562V81.7553ZM119.713 94.1239C119.091 94.1239 118.531 94.0131 118.032 93.7915C117.538 93.5657 117.146 93.2333 116.856 92.7944C116.571 92.3555 116.428 91.8143 116.428 91.1708C116.428 90.6168 116.53 90.1587 116.735 89.7965C116.939 89.4343 117.218 89.1445 117.572 88.9272C117.926 88.7099 118.324 88.5458 118.767 88.435C119.215 88.32 119.677 88.2369 120.154 88.1857C120.73 88.1261 121.196 88.0728 121.554 88.0259C121.912 87.9748 122.172 87.8981 122.334 87.7958C122.5 87.6893 122.583 87.5252 122.583 87.3036V87.2653C122.583 86.7837 122.441 86.4109 122.155 86.1467C121.87 85.8825 121.458 85.7504 120.922 85.7504C120.355 85.7504 119.905 85.8739 119.573 86.1211C119.245 86.3683 119.023 86.6602 118.908 86.9968L116.748 86.69C116.918 86.0934 117.199 85.5948 117.591 85.1942C117.983 84.7894 118.463 84.4869 119.029 84.2866C119.596 84.082 120.223 83.9798 120.909 83.9798C121.382 83.9798 121.853 84.0352 122.321 84.146C122.79 84.2567 123.218 84.44 123.606 84.6957C123.994 84.9471 124.305 85.2901 124.539 85.7248C124.778 86.1594 124.897 86.7028 124.897 87.3548V93.9258H122.673V92.5771H122.596C122.456 92.8498 122.257 93.1055 122.002 93.3441C121.75 93.5785 121.433 93.7681 121.049 93.913C120.67 94.0536 120.225 94.1239 119.713 94.1239ZM120.314 92.4237C120.779 92.4237 121.181 92.332 121.522 92.1488C121.863 91.9613 122.125 91.7141 122.309 91.4073C122.496 91.1005 122.59 90.766 122.59 90.4038V89.2468C122.517 89.3065 122.394 89.3619 122.219 89.413C122.049 89.4641 121.857 89.5089 121.644 89.5472C121.431 89.5856 121.22 89.6197 121.011 89.6495C120.802 89.6793 120.621 89.7049 120.468 89.7262C120.123 89.7731 119.814 89.8498 119.541 89.9563C119.268 90.0629 119.053 90.212 118.895 90.4038C118.738 90.5913 118.659 90.8342 118.659 91.1325C118.659 91.5586 118.814 91.8803 119.125 92.0977C119.436 92.315 119.833 92.4237 120.314 92.4237ZM134.984 86.7028L132.875 86.9329C132.815 86.7198 132.711 86.5195 132.561 86.332C132.417 86.1445 132.221 85.9933 131.973 85.8782C131.726 85.7631 131.424 85.7056 131.066 85.7056C130.584 85.7056 130.179 85.81 129.851 86.0188C129.527 86.2276 129.368 86.4982 129.372 86.8306C129.368 87.1161 129.472 87.3484 129.685 87.5273C129.902 87.7063 130.26 87.8533 130.759 87.9684L132.434 88.3263C133.363 88.5266 134.053 88.8441 134.505 89.2788C134.961 89.7134 135.191 90.2823 135.195 90.9854C135.191 91.6033 135.01 92.1488 134.652 92.6218C134.298 93.0906 133.806 93.457 133.175 93.7212C132.544 93.9854 131.82 94.1175 131.002 94.1175C129.8 94.1175 128.833 93.8661 128.1 93.3633C127.367 92.8562 126.93 92.1509 126.789 91.2475L129.046 91.0302C129.148 91.4734 129.365 91.8079 129.698 92.0337C130.03 92.2596 130.463 92.3725 130.995 92.3725C131.545 92.3725 131.986 92.2596 132.319 92.0337C132.655 91.8079 132.824 91.5288 132.824 91.1964C132.824 90.9151 132.715 90.6829 132.498 90.4996C132.284 90.3164 131.952 90.1758 131.5 90.0778L129.826 89.7262C128.884 89.5302 128.187 89.1999 127.735 88.7354C127.284 88.2667 127.06 87.6744 127.064 86.9585C127.06 86.3533 127.224 85.8292 127.556 85.386C127.893 84.9386 128.36 84.5934 128.956 84.3505C129.557 84.1033 130.25 83.9798 131.034 83.9798C132.184 83.9798 133.09 84.2248 133.75 84.7148C134.415 85.2049 134.826 85.8675 134.984 86.7028ZM145.914 94.1175C144.93 94.1175 144.08 93.913 143.364 93.5039C142.652 93.0906 142.105 92.5067 141.721 91.7525C141.338 90.994 141.146 90.1012 141.146 89.0742C141.146 88.0643 141.338 87.1779 141.721 86.4151C142.109 85.6481 142.65 85.0515 143.345 84.6254C144.039 84.195 144.855 83.9798 145.793 83.9798C146.398 83.9798 146.969 84.0778 147.506 84.2738C148.047 84.4656 148.525 84.7638 148.938 85.1687C149.355 85.5735 149.684 86.0891 149.922 86.7156C150.161 87.3377 150.28 88.0792 150.28 88.94V89.6495H142.233V88.0898H148.062C148.058 87.6467 147.962 87.2525 147.775 86.9073C147.587 86.5579 147.325 86.283 146.988 86.0827C146.656 85.8825 146.268 85.7823 145.825 85.7823C145.352 85.7823 144.936 85.8974 144.578 86.1275C144.221 86.3533 143.941 86.6516 143.741 87.0224C143.545 87.3888 143.445 87.7915 143.441 88.2305V89.592C143.441 90.163 143.545 90.6531 143.754 91.0621C143.963 91.467 144.255 91.7781 144.63 91.9954C145.005 92.2085 145.444 92.315 145.946 92.315C146.283 92.315 146.588 92.2681 146.86 92.1744C147.133 92.0763 147.37 91.9336 147.57 91.7461C147.77 91.5586 147.922 91.3263 148.024 91.0494L150.184 91.2923C150.048 91.8633 149.788 92.3619 149.404 92.788C149.025 93.2099 148.539 93.538 147.947 93.7724C147.355 94.0025 146.677 94.1175 145.914 94.1175ZM96.2346 104.434C96.175 103.875 95.9236 103.441 95.4804 103.13C95.0415 102.819 94.4704 102.663 93.7673 102.663C93.273 102.663 92.849 102.738 92.4953 102.887C92.1416 103.036 91.871 103.238 91.6835 103.494C91.496 103.75 91.4001 104.042 91.3959 104.37C91.3959 104.642 91.4577 104.879 91.5812 105.079C91.7091 105.279 91.8817 105.45 92.099 105.591C92.3163 105.727 92.5571 105.842 92.8213 105.936C93.0855 106.029 93.3518 106.108 93.6203 106.172L94.8476 106.479C95.3419 106.594 95.817 106.75 96.273 106.946C96.7332 107.142 97.1444 107.389 97.5067 107.687C97.8731 107.985 98.1629 108.346 98.376 108.767C98.589 109.189 98.6956 109.684 98.6956 110.25C98.6956 111.017 98.4996 111.693 98.1075 112.277C97.7155 112.856 97.1487 113.31 96.4072 113.638C95.67 113.962 94.7773 114.124 93.729 114.124C92.7105 114.124 91.8263 113.966 91.0763 113.651C90.3305 113.336 89.7467 112.875 89.3248 112.27C88.9072 111.665 88.6814 110.928 88.6473 110.059H90.9804C91.0145 110.515 91.1551 110.894 91.4023 111.196C91.6494 111.499 91.9711 111.725 92.3675 111.874C92.768 112.023 93.2155 112.098 93.7098 112.098C94.2254 112.098 94.6771 112.021 95.0649 111.868C95.4569 111.71 95.7638 111.493 95.9854 111.216C96.2069 110.934 96.3199 110.606 96.3241 110.231C96.3199 109.89 96.2197 109.609 96.0237 109.387C95.8277 109.162 95.5528 108.974 95.1991 108.825C94.8497 108.672 94.4406 108.535 93.9719 108.416L92.4825 108.032C91.4044 107.755 90.5521 107.336 89.9257 106.773C89.3035 106.206 88.9925 105.454 88.9925 104.517C88.9925 103.745 89.2013 103.07 89.6189 102.49C90.0407 101.911 90.6139 101.461 91.3383 101.142C92.0628 100.818 92.8831 100.656 93.7993 100.656C94.7282 100.656 95.5422 100.818 96.241 101.142C96.9442 101.461 97.496 101.907 97.8966 102.478C98.2971 103.044 98.5038 103.696 98.5166 104.434H96.2346ZM103.021 108.173V113.926H100.707V100.835H102.97V105.776H103.085C103.315 105.222 103.671 104.785 104.153 104.466C104.639 104.142 105.256 103.98 106.006 103.98C106.688 103.98 107.283 104.123 107.79 104.408C108.297 104.694 108.689 105.111 108.966 105.661C109.247 106.211 109.388 106.882 109.388 107.674V113.926H107.074V108.032C107.074 107.372 106.903 106.858 106.563 106.492C106.226 106.121 105.753 105.936 105.144 105.936C104.734 105.936 104.368 106.025 104.044 106.204C103.725 106.379 103.473 106.632 103.29 106.965C103.111 107.297 103.021 107.7 103.021 108.173ZM116.029 114.118C115.07 114.118 114.239 113.907 113.536 113.485C112.833 113.063 112.288 112.473 111.9 111.714C111.516 110.956 111.325 110.069 111.325 109.055C111.325 108.041 111.516 107.152 111.9 106.39C112.288 105.627 112.833 105.034 113.536 104.613C114.239 104.191 115.07 103.98 116.029 103.98C116.988 103.98 117.819 104.191 118.522 104.613C119.225 105.034 119.769 105.627 120.152 106.39C120.54 107.152 120.734 108.041 120.734 109.055C120.734 110.069 120.54 110.956 120.152 111.714C119.769 112.473 119.225 113.063 118.522 113.485C117.819 113.907 116.988 114.118 116.029 114.118ZM116.042 112.264C116.562 112.264 116.997 112.121 117.346 111.836C117.695 111.546 117.955 111.158 118.126 110.672C118.301 110.186 118.388 109.645 118.388 109.049C118.388 108.448 118.301 107.904 118.126 107.419C117.955 106.929 117.695 106.539 117.346 106.249C116.997 105.959 116.562 105.814 116.042 105.814C115.509 105.814 115.066 105.959 114.712 106.249C114.363 106.539 114.101 106.929 113.926 107.419C113.756 107.904 113.671 108.448 113.671 109.049C113.671 109.645 113.756 110.186 113.926 110.672C114.101 111.158 114.363 111.546 114.712 111.836C115.066 112.121 115.509 112.264 116.042 112.264ZM124.443 113.926L121.669 104.108H124.027L125.753 111.011H125.843L127.607 104.108H129.94L131.704 110.973H131.8L133.5 104.108H135.865L133.085 113.926H130.675L128.834 107.291H128.7L126.859 113.926H124.443ZM145.241 106.703L143.131 106.933C143.072 106.72 142.967 106.52 142.818 106.332C142.673 106.145 142.477 105.993 142.23 105.878C141.983 105.763 141.68 105.706 141.323 105.706C140.841 105.706 140.436 105.81 140.108 106.019C139.784 106.228 139.624 106.498 139.629 106.831C139.624 107.116 139.729 107.348 139.942 107.527C140.159 107.706 140.517 107.853 141.016 107.968L142.69 108.326C143.619 108.527 144.31 108.844 144.761 109.279C145.217 109.713 145.448 110.282 145.452 110.985C145.448 111.603 145.266 112.149 144.908 112.622C144.555 113.091 144.063 113.457 143.432 113.721C142.801 113.985 142.077 114.118 141.259 114.118C140.057 114.118 139.09 113.866 138.357 113.363C137.624 112.856 137.187 112.151 137.046 111.248L139.303 111.03C139.405 111.473 139.622 111.808 139.955 112.034C140.287 112.26 140.72 112.373 141.252 112.373C141.802 112.373 142.243 112.26 142.575 112.034C142.912 111.808 143.08 111.529 143.08 111.196C143.08 110.915 142.972 110.683 142.754 110.5C142.541 110.316 142.209 110.176 141.757 110.078L140.082 109.726C139.141 109.53 138.444 109.2 137.992 108.735C137.541 108.267 137.317 107.674 137.321 106.958C137.317 106.353 137.481 105.829 137.813 105.386C138.15 104.939 138.617 104.593 139.213 104.35C139.814 104.103 140.506 103.98 141.291 103.98C142.441 103.98 143.347 104.225 144.007 104.715C144.672 105.205 145.083 105.868 145.241 106.703Z" fill="#4A3D90"/>
<path d="M444.728 85.2518H442.337C442.269 84.8597 442.143 84.5124 441.96 84.2099C441.777 83.9031 441.549 83.6431 441.276 83.43C441.003 83.217 440.692 83.0572 440.343 82.9506C439.998 82.8398 439.625 82.7844 439.224 82.7844C438.513 82.7844 437.882 82.9634 437.332 83.3214C436.783 83.6751 436.352 84.195 436.041 84.881C435.73 85.5629 435.574 86.396 435.574 87.3803C435.574 88.3817 435.73 89.2255 436.041 89.9116C436.356 90.5934 436.787 91.109 437.332 91.4585C437.882 91.8036 438.511 91.9762 439.218 91.9762C439.61 91.9762 439.976 91.9251 440.317 91.8228C440.663 91.7163 440.972 91.5607 441.244 91.3562C441.521 91.1516 441.753 90.9002 441.941 90.6019C442.133 90.3036 442.265 89.9627 442.337 89.5792L444.728 89.592C444.638 90.2141 444.445 90.7979 444.146 91.3434C443.852 91.8888 443.467 92.3704 442.989 92.788C442.512 93.2013 441.954 93.5252 441.315 93.7596C440.675 93.9897 439.966 94.1048 439.186 94.1048C438.035 94.1048 437.008 93.8384 436.105 93.3058C435.202 92.7731 434.49 92.0039 433.97 90.9982C433.45 89.9925 433.19 88.7866 433.19 87.3803C433.19 85.9698 433.452 84.7638 433.976 83.7624C434.501 82.7567 435.214 81.9876 436.118 81.4549C437.021 80.9222 438.044 80.6559 439.186 80.6559C439.915 80.6559 440.592 80.7582 441.219 80.9627C441.845 81.1673 442.403 81.4677 442.893 81.864C443.383 82.256 443.786 82.7376 444.101 83.3086C444.421 83.8754 444.63 84.5231 444.728 85.2518ZM451.08 94.1175C450.121 94.1175 449.29 93.9066 448.587 93.4847C447.884 93.0629 447.339 92.4727 446.951 91.7141C446.567 90.9556 446.375 90.0692 446.375 89.055C446.375 88.0408 446.567 87.1523 446.951 86.3896C447.339 85.6268 447.884 85.0344 448.587 84.6126C449.29 84.1907 450.121 83.9798 451.08 83.9798C452.039 83.9798 452.87 84.1907 453.573 84.6126C454.276 85.0344 454.819 85.6268 455.203 86.3896C455.591 87.1523 455.785 88.0408 455.785 89.055C455.785 90.0692 455.591 90.9556 455.203 91.7141C454.819 92.4727 454.276 93.0629 453.573 93.4847C452.87 93.9066 452.039 94.1175 451.08 94.1175ZM451.093 92.2638C451.613 92.2638 452.047 92.1211 452.397 91.8356C452.746 91.5458 453.006 91.158 453.177 90.6722C453.351 90.1864 453.439 89.6452 453.439 89.0487C453.439 88.4478 453.351 87.9045 453.177 87.4187C453.006 86.9286 452.746 86.5387 452.397 86.2489C452.047 85.9592 451.613 85.8143 451.093 85.8143C450.56 85.8143 450.117 85.9592 449.763 86.2489C449.414 86.5387 449.152 86.9286 448.977 87.4187C448.807 87.9045 448.721 88.4478 448.721 89.0487C448.721 89.6452 448.807 90.1864 448.977 90.6722C449.152 91.158 449.414 91.5458 449.763 91.8356C450.117 92.1211 450.56 92.2638 451.093 92.2638ZM460.062 88.1729V93.9258H457.748V84.1076H459.96V85.7759H460.075C460.301 85.2262 460.661 84.7894 461.155 84.4656C461.654 84.1417 462.27 83.9798 463.003 83.9798C463.68 83.9798 464.271 84.1246 464.773 84.4144C465.28 84.7042 465.672 85.1239 465.949 85.6737C466.231 86.2234 466.369 86.8903 466.365 87.6744V93.9258H464.051V88.0323C464.051 87.3761 463.881 86.8626 463.54 86.4918C463.203 86.1211 462.736 85.9357 462.14 85.9357C461.735 85.9357 461.375 86.0252 461.06 86.2042C460.748 86.3789 460.503 86.6325 460.324 86.9648C460.15 87.2972 460.062 87.6999 460.062 88.1729ZM472.987 97.8121C472.156 97.8121 471.442 97.6992 470.846 97.4734C470.249 97.2518 469.77 96.9535 469.408 96.5785C469.045 96.2035 468.794 95.788 468.653 95.332L470.737 94.8271C470.831 95.0188 470.967 95.2085 471.146 95.396C471.325 95.5877 471.566 95.7454 471.869 95.869C472.175 95.9968 472.561 96.0607 473.025 96.0607C473.682 96.0607 474.225 95.9009 474.655 95.5813C475.086 95.266 475.301 94.7461 475.301 94.0217V92.1616H475.186C475.067 92.4002 474.892 92.6452 474.662 92.8967C474.436 93.1481 474.136 93.359 473.761 93.5295C473.39 93.6999 472.923 93.7852 472.361 93.7852C471.606 93.7852 470.922 93.6083 470.309 93.2546C469.699 92.8967 469.214 92.364 468.851 91.6566C468.494 90.945 468.315 90.0543 468.315 88.9847C468.315 87.9066 468.494 86.9968 468.851 86.2553C469.214 85.5096 469.702 84.945 470.315 84.5614C470.929 84.1737 471.613 83.9798 472.367 83.9798C472.942 83.9798 473.415 84.0778 473.786 84.2738C474.161 84.4656 474.459 84.6978 474.681 84.9705C474.903 85.239 475.071 85.4925 475.186 85.7312H475.314V84.1076H477.596V94.0856C477.596 94.9251 477.396 95.6197 476.995 96.1694C476.594 96.7191 476.047 97.1303 475.352 97.4031C474.658 97.6758 473.869 97.8121 472.987 97.8121ZM473.006 91.9698C473.496 91.9698 473.914 91.8505 474.259 91.6119C474.604 91.3732 474.866 91.0302 475.045 90.5827C475.224 90.1353 475.314 89.5984 475.314 88.9719C475.314 88.354 475.224 87.8129 475.045 87.3484C474.871 86.8839 474.611 86.5238 474.266 86.2681C473.925 86.0082 473.505 85.8782 473.006 85.8782C472.491 85.8782 472.06 86.0124 471.715 86.2809C471.37 86.5494 471.11 86.918 470.935 87.3867C470.761 87.8512 470.673 88.3796 470.673 88.9719C470.673 89.5728 470.761 90.0991 470.935 90.5508C471.114 90.9982 471.376 91.3477 471.722 91.5991C472.071 91.8462 472.499 91.9698 473.006 91.9698ZM479.967 93.9258V84.1076H482.211V85.744H482.313C482.492 85.1772 482.799 84.7404 483.234 84.4336C483.672 84.1225 484.173 83.967 484.736 83.967C484.864 83.967 485.006 83.9734 485.164 83.9861C485.326 83.9947 485.46 84.0096 485.567 84.0309V86.1594C485.469 86.1254 485.313 86.0955 485.1 86.07C484.891 86.0401 484.689 86.0252 484.493 86.0252C484.071 86.0252 483.692 86.1168 483.355 86.3001C483.023 86.479 482.761 86.7283 482.569 87.0479C482.377 87.3675 482.281 87.7362 482.281 88.1538V93.9258H479.967ZM491.046 94.1175C490.062 94.1175 489.212 93.913 488.496 93.5039C487.784 93.0906 487.237 92.5067 486.853 91.7525C486.47 90.994 486.278 90.1012 486.278 89.0742C486.278 88.0643 486.47 87.1779 486.853 86.4151C487.241 85.6481 487.782 85.0515 488.477 84.6254C489.171 84.195 489.987 83.9798 490.925 83.9798C491.53 83.9798 492.101 84.0778 492.638 84.2738C493.179 84.4656 493.656 84.7638 494.07 85.1687C494.487 85.5735 494.815 86.0891 495.054 86.7156C495.293 87.3377 495.412 88.0792 495.412 88.94V89.6495H487.364V88.0898H493.194C493.19 87.6467 493.094 87.2525 492.906 86.9073C492.719 86.5579 492.457 86.283 492.12 86.0827C491.788 85.8825 491.4 85.7823 490.957 85.7823C490.484 85.7823 490.068 85.8974 489.71 86.1275C489.352 86.3533 489.073 86.6516 488.873 87.0224C488.677 87.3888 488.577 87.7915 488.573 88.2305V89.592C488.573 90.163 488.677 90.6531 488.886 91.0621C489.095 91.467 489.386 91.7781 489.761 91.9954C490.136 92.2085 490.575 92.315 491.078 92.315C491.415 92.315 491.72 92.2681 491.992 92.1744C492.265 92.0763 492.502 91.9336 492.702 91.7461C492.902 91.5586 493.053 91.3263 493.156 91.0494L495.316 91.2923C495.18 91.8633 494.92 92.3619 494.536 92.788C494.157 93.2099 493.671 93.538 493.079 93.7724C492.487 94.0025 491.809 94.1175 491.046 94.1175ZM505.13 86.7028L503.02 86.9329C502.96 86.7198 502.856 86.5195 502.707 86.332C502.562 86.1445 502.366 85.9933 502.119 85.8782C501.872 85.7631 501.569 85.7056 501.211 85.7056C500.73 85.7056 500.325 85.81 499.997 86.0188C499.673 86.2276 499.513 86.4982 499.517 86.8306C499.513 87.1161 499.617 87.3484 499.831 87.5273C500.048 87.7063 500.406 87.8533 500.904 87.9684L502.579 88.3263C503.508 88.5266 504.198 88.8441 504.65 89.2788C505.106 89.7134 505.336 90.2823 505.34 90.9854C505.336 91.6033 505.155 92.1488 504.797 92.6218C504.443 93.0906 503.951 93.457 503.321 93.7212C502.69 93.9854 501.965 94.1175 501.147 94.1175C499.946 94.1175 498.978 93.8661 498.245 93.3633C497.512 92.8562 497.076 92.1509 496.935 91.2475L499.191 91.0302C499.294 91.4734 499.511 91.8079 499.843 92.0337C500.176 92.2596 500.608 92.3725 501.141 92.3725C501.691 92.3725 502.132 92.2596 502.464 92.0337C502.801 91.8079 502.969 91.5288 502.969 91.1964C502.969 90.9151 502.86 90.6829 502.643 90.4996C502.43 90.3164 502.098 90.1758 501.646 90.0778L499.971 89.7262C499.029 89.5302 498.333 89.1999 497.881 88.7354C497.429 88.2667 497.206 87.6744 497.21 86.9585C497.206 86.3533 497.37 85.8292 497.702 85.386C498.039 84.9386 498.505 84.5934 499.102 84.3505C499.703 84.1033 500.395 83.9798 501.179 83.9798C502.33 83.9798 503.235 84.2248 503.896 84.7148C504.561 85.2049 504.972 85.8675 505.13 86.7028ZM515.008 86.7028L512.899 86.9329C512.839 86.7198 512.735 86.5195 512.586 86.332C512.441 86.1445 512.245 85.9933 511.998 85.8782C511.751 85.7631 511.448 85.7056 511.09 85.7056C510.609 85.7056 510.204 85.81 509.876 86.0188C509.552 86.2276 509.392 86.4982 509.396 86.8306C509.392 87.1161 509.496 87.3484 509.709 87.5273C509.927 87.7063 510.285 87.8533 510.783 87.9684L512.458 88.3263C513.387 88.5266 514.077 88.8441 514.529 89.2788C514.985 89.7134 515.215 90.2823 515.219 90.9854C515.215 91.6033 515.034 92.1488 514.676 92.6218C514.322 93.0906 513.83 93.457 513.199 93.7212C512.569 93.9854 511.844 94.1175 511.026 94.1175C509.824 94.1175 508.857 93.8661 508.124 93.3633C507.391 92.8562 506.954 92.1509 506.814 91.2475L509.07 91.0302C509.172 91.4734 509.39 91.8079 509.722 92.0337C510.055 92.2596 510.487 92.3725 511.02 92.3725C511.57 92.3725 512.011 92.2596 512.343 92.0337C512.68 91.8079 512.848 91.5288 512.848 91.1964C512.848 90.9151 512.739 90.6829 512.522 90.4996C512.309 90.3164 511.976 90.1758 511.525 90.0778L509.85 89.7262C508.908 89.5302 508.212 89.1999 507.76 88.7354C507.308 88.2667 507.084 87.6744 507.089 86.9585C507.084 86.3533 507.248 85.8292 507.581 85.386C507.918 84.9386 508.384 84.5934 508.981 84.3505C509.582 84.1033 510.274 83.9798 511.058 83.9798C512.209 83.9798 513.114 84.2248 513.775 84.7148C514.44 85.2049 514.851 85.8675 515.008 86.7028ZM521.41 94.1175C520.451 94.1175 519.62 93.9066 518.917 93.4847C518.214 93.0629 517.669 92.4727 517.281 91.7141C516.897 90.9556 516.706 90.0692 516.706 89.055C516.706 88.0408 516.897 87.1523 517.281 86.3896C517.669 85.6268 518.214 85.0344 518.917 84.6126C519.62 84.1907 520.451 83.9798 521.41 83.9798C522.369 83.9798 523.2 84.1907 523.903 84.6126C524.606 85.0344 525.149 85.6268 525.533 86.3896C525.921 87.1523 526.115 88.0408 526.115 89.055C526.115 90.0692 525.921 90.9556 525.533 91.7141C525.149 92.4727 524.606 93.0629 523.903 93.4847C523.2 93.9066 522.369 94.1175 521.41 94.1175ZM521.423 92.2638C521.943 92.2638 522.377 92.1211 522.727 91.8356C523.076 91.5458 523.336 91.158 523.507 90.6722C523.681 90.1864 523.769 89.6452 523.769 89.0487C523.769 88.4478 523.681 87.9045 523.507 87.4187C523.336 86.9286 523.076 86.5387 522.727 86.2489C522.377 85.9592 521.943 85.8143 521.423 85.8143C520.89 85.8143 520.447 85.9592 520.093 86.2489C519.744 86.5387 519.482 86.9286 519.307 87.4187C519.137 87.9045 519.051 88.4478 519.051 89.0487C519.051 89.6452 519.137 90.1864 519.307 90.6722C519.482 91.158 519.744 91.5458 520.093 91.8356C520.447 92.1211 520.89 92.2638 521.423 92.2638ZM535.839 86.7028L533.729 86.9329C533.669 86.7198 533.565 86.5195 533.416 86.332C533.271 86.1445 533.075 85.9933 532.828 85.8782C532.581 85.7631 532.278 85.7056 531.92 85.7056C531.439 85.7056 531.034 85.81 530.706 86.0188C530.382 86.2276 530.222 86.4982 530.226 86.8306C530.222 87.1161 530.326 87.3484 530.54 87.5273C530.757 87.7063 531.115 87.8533 531.613 87.9684L533.288 88.3263C534.217 88.5266 534.907 88.8441 535.359 89.2788C535.815 89.7134 536.045 90.2823 536.049 90.9854C536.045 91.6033 535.864 92.1488 535.506 92.6218C535.152 93.0906 534.66 93.457 534.03 93.7212C533.399 93.9854 532.674 94.1175 531.856 94.1175C530.655 94.1175 529.687 93.8661 528.954 93.3633C528.221 92.8562 527.785 92.1509 527.644 91.2475L529.9 91.0302C530.003 91.4734 530.22 91.8079 530.552 92.0337C530.885 92.2596 531.317 92.3725 531.85 92.3725C532.4 92.3725 532.841 92.2596 533.173 92.0337C533.51 91.8079 533.678 91.5288 533.678 91.1964C533.678 90.9151 533.569 90.6829 533.352 90.4996C533.139 90.3164 532.807 90.1758 532.355 90.0778L530.68 89.7262C529.738 89.5302 529.042 89.1999 528.59 88.7354C528.138 88.2667 527.915 87.6744 527.919 86.9585C527.915 86.3533 528.079 85.8292 528.411 85.386C528.748 84.9386 529.214 84.5934 529.811 84.3505C530.412 84.1033 531.104 83.9798 531.888 83.9798C533.039 83.9798 533.944 84.2248 534.605 84.7148C535.27 85.2049 535.681 85.8675 535.839 86.7028ZM441.968 114.118C440.984 114.118 440.134 113.913 439.418 113.504C438.706 113.091 438.158 112.507 437.775 111.752C437.391 110.994 437.2 110.101 437.2 109.074C437.2 108.064 437.391 107.178 437.775 106.415C438.163 105.648 438.704 105.051 439.399 104.625C440.093 104.195 440.909 103.98 441.847 103.98C442.452 103.98 443.023 104.078 443.56 104.274C444.101 104.466 444.578 104.764 444.992 105.169C445.409 105.574 445.737 106.089 445.976 106.716C446.215 107.338 446.334 108.079 446.334 108.94V109.65H438.286V108.09H444.116C444.112 107.647 444.016 107.252 443.828 106.907C443.641 106.558 443.379 106.283 443.042 106.083C442.71 105.882 442.322 105.782 441.879 105.782C441.406 105.782 440.99 105.897 440.632 106.127C440.274 106.353 439.995 106.652 439.795 107.022C439.599 107.389 439.499 107.792 439.494 108.23V109.592C439.494 110.163 439.599 110.653 439.808 111.062C440.016 111.467 440.308 111.778 440.683 111.995C441.058 112.208 441.497 112.315 442 112.315C442.337 112.315 442.641 112.268 442.914 112.174C443.187 112.076 443.423 111.934 443.624 111.746C443.824 111.559 443.975 111.326 444.078 111.049L446.238 111.292C446.102 111.863 445.842 112.362 445.458 112.788C445.079 113.21 444.593 113.538 444.001 113.772C443.408 114.002 442.731 114.118 441.968 114.118ZM452.859 113.926V100.835H457.768C458.773 100.835 459.617 101.022 460.299 101.397C460.985 101.772 461.503 102.288 461.852 102.944C462.206 103.596 462.383 104.338 462.383 105.169C462.383 106.008 462.206 106.754 461.852 107.406C461.498 108.058 460.976 108.571 460.286 108.946C459.596 109.317 458.746 109.502 457.736 109.502H454.482V107.553H457.416C458.004 107.553 458.486 107.451 458.861 107.246C459.236 107.042 459.513 106.76 459.692 106.402C459.875 106.044 459.967 105.633 459.967 105.169C459.967 104.704 459.875 104.295 459.692 103.941C459.513 103.588 459.234 103.313 458.854 103.117C458.479 102.917 457.996 102.816 457.403 102.816H455.23V113.926H452.859ZM466.99 114.124C466.368 114.124 465.807 114.013 465.309 113.792C464.814 113.566 464.422 113.233 464.133 112.794C463.847 112.355 463.704 111.814 463.704 111.171C463.704 110.617 463.807 110.159 464.011 109.797C464.216 109.434 464.495 109.145 464.848 108.927C465.202 108.71 465.601 108.546 466.044 108.435C466.491 108.32 466.954 108.237 467.431 108.186C468.006 108.126 468.473 108.073 468.831 108.026C469.189 107.975 469.449 107.898 469.611 107.796C469.777 107.689 469.86 107.525 469.86 107.304V107.265C469.86 106.784 469.717 106.411 469.432 106.147C469.146 105.882 468.735 105.75 468.198 105.75C467.631 105.75 467.182 105.874 466.849 106.121C466.521 106.368 466.299 106.66 466.184 106.997L464.024 106.69C464.194 106.093 464.476 105.595 464.868 105.194C465.26 104.789 465.739 104.487 466.306 104.287C466.873 104.082 467.499 103.98 468.185 103.98C468.658 103.98 469.129 104.035 469.598 104.146C470.066 104.257 470.495 104.44 470.883 104.696C471.27 104.947 471.581 105.29 471.816 105.725C472.054 106.159 472.174 106.703 472.174 107.355V113.926H469.949V112.577H469.873C469.732 112.85 469.534 113.105 469.278 113.344C469.027 113.578 468.709 113.768 468.326 113.913C467.946 114.054 467.501 114.124 466.99 114.124ZM467.591 112.424C468.055 112.424 468.458 112.332 468.799 112.149C469.14 111.961 469.402 111.714 469.585 111.407C469.772 111.1 469.866 110.766 469.866 110.404V109.247C469.794 109.306 469.67 109.362 469.495 109.413C469.325 109.464 469.133 109.509 468.92 109.547C468.707 109.586 468.496 109.62 468.287 109.65C468.079 109.679 467.897 109.705 467.744 109.726C467.399 109.773 467.09 109.85 466.817 109.956C466.544 110.063 466.329 110.212 466.172 110.404C466.014 110.591 465.935 110.834 465.935 111.132C465.935 111.559 466.091 111.88 466.402 112.098C466.713 112.315 467.109 112.424 467.591 112.424ZM476.814 100.835V113.926H474.5V100.835H476.814ZM483.54 114.118C482.556 114.118 481.706 113.913 480.99 113.504C480.278 113.091 479.731 112.507 479.347 111.752C478.964 110.994 478.772 110.101 478.772 109.074C478.772 108.064 478.964 107.178 479.347 106.415C479.735 105.648 480.276 105.051 480.971 104.625C481.665 104.195 482.481 103.98 483.419 103.98C484.024 103.98 484.595 104.078 485.132 104.274C485.673 104.466 486.15 104.764 486.564 105.169C486.981 105.574 487.31 106.089 487.548 106.716C487.787 107.338 487.906 108.079 487.906 108.94V109.65H479.859V108.09H485.688C485.684 107.647 485.588 107.252 485.4 106.907C485.213 106.558 484.951 106.283 484.614 106.083C484.282 105.882 483.894 105.782 483.451 105.782C482.978 105.782 482.562 105.897 482.204 106.127C481.847 106.353 481.567 106.652 481.367 107.022C481.171 107.389 481.071 107.792 481.067 108.23V109.592C481.067 110.163 481.171 110.653 481.38 111.062C481.589 111.467 481.881 111.778 482.256 111.995C482.631 112.208 483.07 112.315 483.572 112.315C483.909 112.315 484.214 112.268 484.486 112.174C484.759 112.076 484.996 111.934 485.196 111.746C485.396 111.559 485.547 111.326 485.65 111.049L487.81 111.292C487.674 111.863 487.414 112.362 487.03 112.788C486.651 113.21 486.165 113.538 485.573 113.772C484.981 114.002 484.303 114.118 483.54 114.118ZM497.624 106.703L495.514 106.933C495.455 106.72 495.35 106.52 495.201 106.332C495.056 106.145 494.86 105.993 494.613 105.878C494.366 105.763 494.063 105.706 493.705 105.706C493.224 105.706 492.819 105.81 492.491 106.019C492.167 106.228 492.007 106.498 492.011 106.831C492.007 107.116 492.112 107.348 492.325 107.527C492.542 107.706 492.9 107.853 493.399 107.968L495.073 108.326C496.002 108.527 496.693 108.844 497.144 109.279C497.6 109.713 497.83 110.282 497.835 110.985C497.83 111.603 497.649 112.149 497.291 112.622C496.938 113.091 496.445 113.457 495.815 113.721C495.184 113.985 494.46 114.118 493.641 114.118C492.44 114.118 491.472 113.866 490.739 113.363C490.006 112.856 489.57 112.151 489.429 111.248L491.685 111.03C491.788 111.473 492.005 111.808 492.337 112.034C492.67 112.26 493.102 112.373 493.635 112.373C494.185 112.373 494.626 112.26 494.958 112.034C495.295 111.808 495.463 111.529 495.463 111.196C495.463 110.915 495.354 110.683 495.137 110.5C494.924 110.316 494.592 110.176 494.14 110.078L492.465 109.726C491.524 109.53 490.827 109.2 490.375 108.735C489.923 108.267 489.7 107.674 489.704 106.958C489.7 106.353 489.864 105.829 490.196 105.386C490.533 104.939 490.999 104.593 491.596 104.35C492.197 104.103 492.889 103.98 493.673 103.98C494.824 103.98 495.729 104.225 496.39 104.715C497.055 105.205 497.466 105.868 497.624 106.703ZM504.645 104.108V105.897H499.001V104.108H504.645ZM500.395 101.755H502.709V110.973C502.709 111.284 502.755 111.522 502.849 111.689C502.947 111.85 503.075 111.961 503.233 112.021C503.39 112.081 503.565 112.11 503.757 112.11C503.902 112.11 504.034 112.1 504.153 112.078C504.277 112.057 504.37 112.038 504.434 112.021L504.824 113.83C504.701 113.873 504.524 113.919 504.294 113.971C504.068 114.022 503.791 114.051 503.463 114.06C502.883 114.077 502.361 113.99 501.897 113.798C501.432 113.602 501.064 113.299 500.791 112.89C500.522 112.481 500.39 111.97 500.395 111.356V101.755ZM506.581 113.926V104.108H508.824V105.744H508.926C509.105 105.177 509.412 104.74 509.847 104.434C510.286 104.123 510.786 103.967 511.349 103.967C511.477 103.967 511.62 103.973 511.777 103.986C511.939 103.995 512.073 104.01 512.18 104.031V106.159C512.082 106.125 511.926 106.096 511.713 106.07C511.505 106.04 511.302 106.025 511.106 106.025C510.684 106.025 510.305 106.117 509.968 106.3C509.636 106.479 509.374 106.728 509.182 107.048C508.99 107.368 508.894 107.736 508.894 108.154V113.926H506.581ZM516.367 114.124C515.745 114.124 515.184 114.013 514.686 113.792C514.191 113.566 513.799 113.233 513.509 112.794C513.224 112.355 513.081 111.814 513.081 111.171C513.081 110.617 513.184 110.159 513.388 109.797C513.593 109.434 513.872 109.145 514.225 108.927C514.579 108.71 514.978 108.546 515.421 108.435C515.868 108.32 516.331 108.237 516.808 108.186C517.383 108.126 517.85 108.073 518.208 108.026C518.566 107.975 518.826 107.898 518.987 107.796C519.154 107.689 519.237 107.525 519.237 107.304V107.265C519.237 106.784 519.094 106.411 518.809 106.147C518.523 105.882 518.112 105.75 517.575 105.75C517.008 105.75 516.559 105.874 516.226 106.121C515.898 106.368 515.676 106.66 515.561 106.997L513.401 106.69C513.571 106.093 513.853 105.595 514.245 105.194C514.637 104.789 515.116 104.487 515.683 104.287C516.25 104.082 516.876 103.98 517.562 103.98C518.035 103.98 518.506 104.035 518.975 104.146C519.443 104.257 519.872 104.44 520.259 104.696C520.647 104.947 520.958 105.29 521.193 105.725C521.431 106.159 521.551 106.703 521.551 107.355V113.926H519.326V112.577H519.25C519.109 112.85 518.911 113.105 518.655 113.344C518.404 113.578 518.086 113.768 517.703 113.913C517.323 114.054 516.878 114.124 516.367 114.124ZM516.968 112.424C517.432 112.424 517.835 112.332 518.176 112.149C518.517 111.961 518.779 111.714 518.962 111.407C519.149 111.1 519.243 110.766 519.243 110.404V109.247C519.171 109.306 519.047 109.362 518.872 109.413C518.702 109.464 518.51 109.509 518.297 109.547C518.084 109.586 517.873 109.62 517.664 109.65C517.456 109.679 517.274 109.705 517.121 109.726C516.776 109.773 516.467 109.85 516.194 109.956C515.921 110.063 515.706 110.212 515.549 110.404C515.391 110.591 515.312 110.834 515.312 111.132C515.312 111.559 515.468 111.88 515.779 112.098C516.09 112.315 516.486 112.424 516.968 112.424ZM531.637 106.703L529.528 106.933C529.468 106.72 529.364 106.52 529.215 106.332C529.07 106.145 528.874 105.993 528.627 105.878C528.38 105.763 528.077 105.706 527.719 105.706C527.237 105.706 526.833 105.81 526.505 106.019C526.181 106.228 526.021 106.498 526.025 106.831C526.021 107.116 526.125 107.348 526.338 107.527C526.556 107.706 526.914 107.853 527.412 107.968L529.087 108.326C530.016 108.527 530.706 108.844 531.158 109.279C531.614 109.713 531.844 110.282 531.848 110.985C531.844 111.603 531.663 112.149 531.305 112.622C530.951 113.091 530.459 113.457 529.828 113.721C529.198 113.985 528.473 114.118 527.655 114.118C526.453 114.118 525.486 113.866 524.753 113.363C524.02 112.856 523.583 112.151 523.443 111.248L525.699 111.03C525.801 111.473 526.019 111.808 526.351 112.034C526.684 112.26 527.116 112.373 527.649 112.373C528.198 112.373 528.639 112.26 528.972 112.034C529.309 111.808 529.477 111.529 529.477 111.196C529.477 110.915 529.368 110.683 529.151 110.5C528.938 110.316 528.605 110.176 528.154 110.078L526.479 109.726C525.537 109.53 524.84 109.2 524.389 108.735C523.937 108.267 523.713 107.674 523.718 106.958C523.713 106.353 523.877 105.829 524.21 105.386C524.546 104.939 525.013 104.593 525.61 104.35C526.21 104.103 526.903 103.98 527.687 103.98C528.838 103.98 529.743 104.225 530.404 104.715C531.068 105.205 531.48 105.868 531.637 106.703Z" fill="#4A3D90"/>
<path d="M259.483 82.8228V80.8349H269.928V82.8228H265.882V93.9258H263.53V82.8228H259.483ZM274.762 94.1175C273.778 94.1175 272.928 93.913 272.212 93.5039C271.5 93.0906 270.952 92.5067 270.569 91.7525C270.185 90.994 269.994 90.1012 269.994 89.0742C269.994 88.0643 270.185 87.1779 270.569 86.4151C270.957 85.6481 271.498 85.0515 272.192 84.6254C272.887 84.195 273.703 83.9798 274.641 83.9798C275.246 83.9798 275.817 84.0778 276.354 84.2738C276.895 84.4656 277.372 84.7638 277.786 85.1687C278.203 85.5735 278.531 86.0891 278.77 86.7156C279.009 87.3377 279.128 88.0792 279.128 88.94V89.6495H271.08V88.0898H276.91C276.906 87.6467 276.81 87.2525 276.622 86.9073C276.435 86.5579 276.173 86.283 275.836 86.0827C275.504 85.8825 275.116 85.7823 274.673 85.7823C274.2 85.7823 273.784 85.8974 273.426 86.1275C273.068 86.3533 272.789 86.6516 272.589 87.0224C272.393 87.3888 272.293 87.7915 272.288 88.2305V89.592C272.288 90.163 272.393 90.6531 272.602 91.0621C272.81 91.467 273.102 91.7781 273.477 91.9954C273.852 92.2085 274.291 92.315 274.794 92.315C275.131 92.315 275.435 92.2681 275.708 92.1744C275.981 92.0763 276.217 91.9336 276.418 91.7461C276.618 91.5586 276.769 91.3263 276.871 91.0494L279.032 91.2923C278.896 91.8633 278.636 92.3619 278.252 92.788C277.873 93.2099 277.387 93.538 276.795 93.7724C276.202 94.0025 275.525 94.1175 274.762 94.1175ZM283.911 94.1239C283.289 94.1239 282.728 94.0131 282.23 93.7915C281.735 93.5657 281.343 93.2333 281.053 92.7944C280.768 92.3555 280.625 91.8143 280.625 91.1708C280.625 90.6168 280.727 90.1587 280.932 89.7965C281.137 89.4343 281.416 89.1445 281.769 88.9272C282.123 88.7099 282.521 88.5458 282.965 88.435C283.412 88.32 283.874 88.2369 284.352 88.1857C284.927 88.1261 285.394 88.0728 285.752 88.0259C286.11 87.9748 286.369 87.8981 286.531 87.7958C286.698 87.6893 286.781 87.5252 286.781 87.3036V87.2653C286.781 86.7837 286.638 86.4109 286.352 86.1467C286.067 85.8825 285.656 85.7504 285.119 85.7504C284.552 85.7504 284.102 85.8739 283.77 86.1211C283.442 86.3683 283.22 86.6602 283.105 86.9968L280.945 86.69C281.115 86.0934 281.396 85.5948 281.789 85.1942C282.181 84.7894 282.66 84.4869 283.227 84.2866C283.794 84.082 284.42 83.9798 285.106 83.9798C285.579 83.9798 286.05 84.0352 286.519 84.146C286.987 84.2567 287.416 84.44 287.803 84.6957C288.191 84.9471 288.502 85.2901 288.737 85.7248C288.975 86.1594 289.095 86.7028 289.095 87.3548V93.9258H286.87V92.5771H286.794C286.653 92.8498 286.455 93.1055 286.199 93.3441C285.948 93.5785 285.63 93.7681 285.247 93.913C284.867 94.0536 284.422 94.1239 283.911 94.1239ZM284.512 92.4237C284.976 92.4237 285.379 92.332 285.72 92.1488C286.061 91.9613 286.323 91.7141 286.506 91.4073C286.693 91.1005 286.787 90.766 286.787 90.4038V89.2468C286.715 89.3065 286.591 89.3619 286.416 89.413C286.246 89.4641 286.054 89.5089 285.841 89.5472C285.628 89.5856 285.417 89.6197 285.208 89.6495C284.999 89.6793 284.818 89.7049 284.665 89.7262C284.32 89.7731 284.011 89.8498 283.738 89.9563C283.465 90.0629 283.25 90.212 283.093 90.4038C282.935 90.5913 282.856 90.8342 282.856 91.1325C282.856 91.5586 283.012 91.8803 283.323 92.0977C283.634 92.315 284.03 92.4237 284.512 92.4237ZM296.324 84.1076V85.8974H290.68V84.1076H296.324ZM292.073 81.7553H294.387V90.9727C294.387 91.2837 294.434 91.5224 294.528 91.6886C294.626 91.8505 294.754 91.9613 294.911 92.021C295.069 92.0806 295.244 92.1104 295.436 92.1104C295.58 92.1104 295.713 92.0998 295.832 92.0785C295.955 92.0572 296.049 92.038 296.113 92.021L296.503 93.8299C296.379 93.8725 296.203 93.9194 295.972 93.9705C295.747 94.0217 295.47 94.0515 295.142 94.06C294.562 94.0771 294.04 93.9897 293.575 93.7979C293.111 93.6019 292.742 93.2994 292.47 92.8903C292.201 92.4812 292.069 91.9698 292.073 91.3562V81.7553ZM298.259 93.9258V84.1076H300.503V85.744H300.605C300.784 85.1772 301.091 84.7404 301.526 84.4336C301.964 84.1225 302.465 83.967 303.028 83.967C303.156 83.967 303.298 83.9734 303.456 83.9861C303.618 83.9947 303.752 84.0096 303.859 84.0309V86.1594C303.761 86.1254 303.605 86.0955 303.392 86.07C303.183 86.0401 302.981 86.0252 302.785 86.0252C302.363 86.0252 301.984 86.1168 301.647 86.3001C301.315 86.479 301.053 86.7283 300.861 87.0479C300.669 87.3675 300.573 87.7362 300.573 88.1538V93.9258H298.259ZM309.274 94.1175C308.316 94.1175 307.485 93.9066 306.781 93.4847C306.078 93.0629 305.533 92.4727 305.145 91.7141C304.762 90.9556 304.57 90.0692 304.57 89.055C304.57 88.0408 304.762 87.1523 305.145 86.3896C305.533 85.6268 306.078 85.0344 306.781 84.6126C307.485 84.1907 308.316 83.9798 309.274 83.9798C310.233 83.9798 311.064 84.1907 311.767 84.6126C312.47 85.0344 313.014 85.6268 313.397 86.3896C313.785 87.1523 313.979 88.0408 313.979 89.055C313.979 90.0692 313.785 90.9556 313.397 91.7141C313.014 92.4727 312.47 93.0629 311.767 93.4847C311.064 93.9066 310.233 94.1175 309.274 94.1175ZM309.287 92.2638C309.807 92.2638 310.242 92.1211 310.591 91.8356C310.941 91.5458 311.2 91.158 311.371 90.6722C311.546 90.1864 311.633 89.6452 311.633 89.0487C311.633 88.4478 311.546 87.9045 311.371 87.4187C311.2 86.9286 310.941 86.5387 310.591 86.2489C310.242 85.9592 309.807 85.8143 309.287 85.8143C308.754 85.8143 308.311 85.9592 307.958 86.2489C307.608 86.5387 307.346 86.9286 307.171 87.4187C307.001 87.9045 306.916 88.4478 306.916 89.0487C306.916 89.6452 307.001 90.1864 307.171 90.6722C307.346 91.158 307.608 91.5458 307.958 91.8356C308.311 92.1211 308.754 92.2638 309.287 92.2638ZM323.703 86.7028L321.593 86.9329C321.534 86.7198 321.429 86.5195 321.28 86.332C321.135 86.1445 320.939 85.9933 320.692 85.8782C320.445 85.7631 320.142 85.7056 319.784 85.7056C319.303 85.7056 318.898 85.81 318.57 86.0188C318.246 86.2276 318.086 86.4982 318.091 86.8306C318.086 87.1161 318.191 87.3484 318.404 87.5273C318.621 87.7063 318.979 87.8533 319.478 87.9684L321.152 88.3263C322.081 88.5266 322.772 88.8441 323.223 89.2788C323.679 89.7134 323.909 90.2823 323.914 90.9854C323.909 91.6033 323.728 92.1488 323.37 92.6218C323.017 93.0906 322.525 93.457 321.894 93.7212C321.263 93.9854 320.539 94.1175 319.721 94.1175C318.519 94.1175 317.551 93.8661 316.819 93.3633C316.086 92.8562 315.649 92.1509 315.508 91.2475L317.765 91.0302C317.867 91.4734 318.084 91.8079 318.417 92.0337C318.749 92.2596 319.181 92.3725 319.714 92.3725C320.264 92.3725 320.705 92.2596 321.037 92.0337C321.374 91.8079 321.542 91.5288 321.542 91.1964C321.542 90.9151 321.434 90.6829 321.216 90.4996C321.003 90.3164 320.671 90.1758 320.219 90.0778L318.544 89.7262C317.603 89.5302 316.906 89.1999 316.454 88.7354C316.002 88.2667 315.779 87.6744 315.783 86.9585C315.779 86.3533 315.943 85.8292 316.275 85.386C316.612 84.9386 317.078 84.5934 317.675 84.3505C318.276 84.1033 318.968 83.9798 319.752 83.9798C320.903 83.9798 321.809 84.2248 322.469 84.7148C323.134 85.2049 323.545 85.8675 323.703 86.7028ZM334.633 94.1175C333.649 94.1175 332.799 93.913 332.083 93.5039C331.371 93.0906 330.824 92.5067 330.44 91.7525C330.056 90.994 329.865 90.1012 329.865 89.0742C329.865 88.0643 330.056 87.1779 330.44 86.4151C330.828 85.6481 331.369 85.0515 332.064 84.6254C332.758 84.195 333.574 83.9798 334.512 83.9798C335.117 83.9798 335.688 84.0778 336.225 84.2738C336.766 84.4656 337.243 84.7638 337.657 85.1687C338.074 85.5735 338.402 86.0891 338.641 86.7156C338.88 87.3377 338.999 88.0792 338.999 88.94V89.6495H330.951V88.0898H336.781C336.777 87.6467 336.681 87.2525 336.493 86.9073C336.306 86.5579 336.044 86.283 335.707 86.0827C335.375 85.8825 334.987 85.7823 334.544 85.7823C334.071 85.7823 333.655 85.8974 333.297 86.1275C332.939 86.3533 332.66 86.6516 332.46 87.0224C332.264 87.3888 332.164 87.7915 332.159 88.2305V89.592C332.159 90.163 332.264 90.6531 332.473 91.0621C332.681 91.467 332.973 91.7781 333.348 91.9954C333.723 92.2085 334.162 92.315 334.665 92.315C335.002 92.315 335.306 92.2681 335.579 92.1744C335.852 92.0763 336.088 91.9336 336.289 91.7461C336.489 91.5586 336.64 91.3263 336.743 91.0494L338.903 91.2923C338.767 91.8633 338.507 92.3619 338.123 92.788C337.744 93.2099 337.258 93.538 336.666 93.7724C336.074 94.0025 335.396 94.1175 334.633 94.1175ZM249.406 113.926V100.835H257.921V102.823H251.778V106.377H257.48V108.365H251.778V111.938H257.972V113.926H249.406ZM267.998 106.703L265.888 106.933C265.829 106.72 265.724 106.52 265.575 106.332C265.43 106.145 265.234 105.993 264.987 105.878C264.74 105.763 264.437 105.706 264.079 105.706C263.598 105.706 263.193 105.81 262.865 106.019C262.541 106.228 262.381 106.498 262.385 106.831C262.381 107.116 262.486 107.348 262.699 107.527C262.916 107.706 263.274 107.853 263.773 107.968L265.447 108.326C266.376 108.527 267.067 108.844 267.518 109.279C267.974 109.713 268.204 110.282 268.209 110.985C268.204 111.603 268.023 112.149 267.665 112.622C267.312 113.091 266.819 113.457 266.189 113.721C265.558 113.985 264.834 114.118 264.015 114.118C262.814 114.118 261.846 113.866 261.113 113.363C260.381 112.856 259.944 112.151 259.803 111.248L262.059 111.03C262.162 111.473 262.379 111.808 262.711 112.034C263.044 112.26 263.476 112.373 264.009 112.373C264.559 112.373 265 112.26 265.332 112.034C265.669 111.808 265.837 111.529 265.837 111.196C265.837 110.915 265.729 110.683 265.511 110.5C265.298 110.316 264.966 110.176 264.514 110.078L262.839 109.726C261.898 109.53 261.201 109.2 260.749 108.735C260.297 108.267 260.074 107.674 260.078 106.958C260.074 106.353 260.238 105.829 260.57 105.386C260.907 104.939 261.373 104.593 261.97 104.35C262.571 104.103 263.263 103.98 264.047 103.98C265.198 103.98 266.104 104.225 266.764 104.715C267.429 105.205 267.84 105.868 267.998 106.703ZM270.117 117.608V104.108H272.392V105.731H272.526C272.646 105.493 272.814 105.239 273.031 104.971C273.249 104.698 273.543 104.466 273.914 104.274C274.284 104.078 274.757 103.98 275.333 103.98C276.091 103.98 276.775 104.174 277.384 104.561C277.998 104.945 278.484 105.514 278.842 106.268C279.204 107.018 279.385 107.939 279.385 109.029C279.385 110.108 279.208 111.024 278.855 111.778C278.501 112.532 278.019 113.108 277.41 113.504C276.801 113.9 276.11 114.098 275.339 114.098C274.776 114.098 274.31 114.005 273.939 113.817C273.568 113.63 273.27 113.404 273.044 113.14C272.823 112.871 272.65 112.618 272.526 112.379H272.431V117.608H270.117ZM272.386 109.017C272.386 109.652 272.475 110.208 272.654 110.685C272.838 111.162 273.1 111.535 273.441 111.804C273.786 112.068 274.203 112.2 274.693 112.2C275.205 112.2 275.633 112.064 275.978 111.791C276.323 111.514 276.583 111.137 276.758 110.659C276.937 110.178 277.026 109.63 277.026 109.017C277.026 108.407 276.939 107.866 276.764 107.393C276.59 106.92 276.33 106.549 275.985 106.281C275.639 106.012 275.209 105.878 274.693 105.878C274.199 105.878 273.779 106.008 273.434 106.268C273.089 106.528 272.827 106.892 272.648 107.361C272.473 107.83 272.386 108.382 272.386 109.017ZM285.713 114.118C284.729 114.118 283.879 113.913 283.163 113.504C282.451 113.091 281.904 112.507 281.52 111.752C281.137 110.994 280.945 110.101 280.945 109.074C280.945 108.064 281.137 107.178 281.52 106.415C281.908 105.648 282.449 105.051 283.144 104.625C283.838 104.195 284.654 103.98 285.592 103.98C286.197 103.98 286.768 104.078 287.305 104.274C287.846 104.466 288.323 104.764 288.737 105.169C289.154 105.574 289.482 106.089 289.721 106.716C289.96 107.338 290.079 108.079 290.079 108.94V109.65H282.031V108.09H287.861C287.857 107.647 287.761 107.252 287.573 106.907C287.386 106.558 287.124 106.283 286.787 106.083C286.455 105.882 286.067 105.782 285.624 105.782C285.151 105.782 284.735 105.897 284.377 106.127C284.019 106.353 283.74 106.652 283.54 107.022C283.344 107.389 283.244 107.792 283.24 108.23V109.592C283.24 110.163 283.344 110.653 283.553 111.062C283.762 111.467 284.053 111.778 284.428 111.995C284.803 112.208 285.242 112.315 285.745 112.315C286.082 112.315 286.387 112.268 286.659 112.174C286.932 112.076 287.169 111.934 287.369 111.746C287.569 111.559 287.72 111.326 287.823 111.049L289.983 111.292C289.847 111.863 289.587 112.362 289.203 112.788C288.824 113.21 288.338 113.538 287.746 113.772C287.154 114.002 286.476 114.118 285.713 114.118ZM296.939 104.108V105.897H291.295V104.108H296.939ZM292.689 101.755H295.002V110.973C295.002 111.284 295.049 111.522 295.143 111.689C295.241 111.85 295.369 111.961 295.527 112.021C295.684 112.081 295.859 112.11 296.051 112.11C296.196 112.11 296.328 112.1 296.447 112.078C296.571 112.057 296.664 112.038 296.728 112.021L297.118 113.83C296.995 113.873 296.818 113.919 296.588 113.971C296.362 114.022 296.085 114.051 295.757 114.06C295.177 114.077 294.655 113.99 294.191 113.798C293.726 113.602 293.358 113.299 293.085 112.89C292.816 112.481 292.684 111.97 292.689 111.356V101.755ZM301.7 114.124C301.078 114.124 300.517 114.013 300.019 113.792C299.524 113.566 299.132 113.233 298.843 112.794C298.557 112.355 298.414 111.814 298.414 111.171C298.414 110.617 298.517 110.159 298.721 109.797C298.926 109.434 299.205 109.145 299.558 108.927C299.912 108.71 300.311 108.546 300.754 108.435C301.201 108.32 301.664 108.237 302.141 108.186C302.716 108.126 303.183 108.073 303.541 108.026C303.899 107.975 304.159 107.898 304.32 107.796C304.487 107.689 304.57 107.525 304.57 107.304V107.265C304.57 106.784 304.427 106.411 304.142 106.147C303.856 105.882 303.445 105.75 302.908 105.75C302.341 105.75 301.892 105.874 301.559 106.121C301.231 106.368 301.009 106.66 300.894 106.997L298.734 106.69C298.904 106.093 299.186 105.595 299.578 105.194C299.97 104.789 300.449 104.487 301.016 104.287C301.583 104.082 302.209 103.98 302.895 103.98C303.368 103.98 303.839 104.035 304.308 104.146C304.776 104.257 305.205 104.44 305.593 104.696C305.98 104.947 306.291 105.29 306.526 105.725C306.764 106.159 306.884 106.703 306.884 107.355V113.926H304.659V112.577H304.583C304.442 112.85 304.244 113.105 303.988 113.344C303.737 113.578 303.419 113.768 303.036 113.913C302.656 114.054 302.211 114.124 301.7 114.124ZM302.301 112.424C302.765 112.424 303.168 112.332 303.509 112.149C303.85 111.961 304.112 111.714 304.295 111.407C304.482 111.1 304.576 110.766 304.576 110.404V109.247C304.504 109.306 304.38 109.362 304.205 109.413C304.035 109.464 303.843 109.509 303.63 109.547C303.417 109.586 303.206 109.62 302.997 109.65C302.789 109.679 302.607 109.705 302.454 109.726C302.109 109.773 301.8 109.85 301.527 109.956C301.254 110.063 301.039 110.212 300.882 110.404C300.724 110.591 300.645 110.834 300.645 111.132C300.645 111.559 300.801 111.88 301.112 112.098C301.423 112.315 301.819 112.424 302.301 112.424ZM302.109 102.816L303.541 99.8952H305.803L303.841 102.816H302.109ZM313.493 114.118C312.513 114.118 311.671 113.902 310.968 113.472C310.269 113.042 309.73 112.447 309.351 111.689C308.976 110.926 308.789 110.048 308.789 109.055C308.789 108.058 308.98 107.178 309.364 106.415C309.747 105.648 310.289 105.051 310.987 104.625C311.691 104.195 312.521 103.98 313.48 103.98C314.277 103.98 314.982 104.127 315.596 104.421C316.214 104.711 316.706 105.122 317.073 105.654C317.439 106.183 317.648 106.801 317.699 107.508H315.487C315.398 107.035 315.185 106.641 314.848 106.326C314.516 106.006 314.07 105.846 313.512 105.846C313.039 105.846 312.624 105.974 312.266 106.23C311.908 106.481 311.629 106.843 311.428 107.316C311.232 107.789 311.134 108.356 311.134 109.017C311.134 109.686 311.232 110.261 311.428 110.743C311.624 111.22 311.899 111.588 312.253 111.848C312.611 112.104 313.031 112.232 313.512 112.232C313.853 112.232 314.158 112.168 314.426 112.04C314.699 111.908 314.927 111.718 315.11 111.471C315.294 111.224 315.419 110.924 315.487 110.57H317.699C317.644 111.265 317.439 111.88 317.085 112.417C316.732 112.95 316.25 113.368 315.641 113.67C315.031 113.968 314.316 114.118 313.493 114.118ZM325.857 109.797V104.108H328.171V113.926H325.927V112.181H325.825C325.603 112.73 325.239 113.18 324.732 113.529C324.229 113.879 323.609 114.054 322.872 114.054C322.228 114.054 321.659 113.911 321.165 113.625C320.675 113.336 320.292 112.916 320.015 112.366C319.738 111.812 319.599 111.143 319.599 110.359V104.108H321.913V110.001C321.913 110.623 322.083 111.118 322.424 111.484C322.765 111.85 323.213 112.034 323.767 112.034C324.108 112.034 324.438 111.951 324.757 111.784C325.077 111.618 325.339 111.371 325.544 111.043C325.752 110.711 325.857 110.295 325.857 109.797ZM332.864 100.835V113.926H330.55V100.835H332.864ZM339.526 114.118C338.567 114.118 337.737 113.907 337.033 113.485C336.33 113.063 335.785 112.473 335.397 111.714C335.013 110.956 334.822 110.069 334.822 109.055C334.822 108.041 335.013 107.152 335.397 106.39C335.785 105.627 336.33 105.034 337.033 104.613C337.737 104.191 338.567 103.98 339.526 103.98C340.485 103.98 341.316 104.191 342.019 104.613C342.722 105.034 343.266 105.627 343.649 106.39C344.037 107.152 344.231 108.041 344.231 109.055C344.231 110.069 344.037 110.956 343.649 111.714C343.266 112.473 342.722 113.063 342.019 113.485C341.316 113.907 340.485 114.118 339.526 114.118ZM339.539 112.264C340.059 112.264 340.494 112.121 340.843 111.836C341.192 111.546 341.452 111.158 341.623 110.672C341.798 110.186 341.885 109.645 341.885 109.049C341.885 108.448 341.798 107.904 341.623 107.419C341.452 106.929 341.192 106.539 340.843 106.249C340.494 105.959 340.059 105.814 339.539 105.814C339.006 105.814 338.563 105.959 338.21 106.249C337.86 106.539 337.598 106.929 337.423 107.419C337.253 107.904 337.168 108.448 337.168 109.049C337.168 109.645 337.253 110.186 337.423 110.672C337.598 111.158 337.86 111.546 338.21 111.836C338.563 112.121 339.006 112.264 339.539 112.264ZM353.955 106.703L351.845 106.933C351.786 106.72 351.681 106.52 351.532 106.332C351.387 106.145 351.191 105.993 350.944 105.878C350.697 105.763 350.394 105.706 350.036 105.706C349.555 105.706 349.15 105.81 348.822 106.019C348.498 106.228 348.338 106.498 348.343 106.831C348.338 107.116 348.443 107.348 348.656 107.527C348.873 107.706 349.231 107.853 349.73 107.968L351.404 108.326C352.333 108.527 353.024 108.844 353.475 109.279C353.931 109.713 354.161 110.282 354.166 110.985C354.161 111.603 353.98 112.149 353.622 112.622C353.269 113.091 352.776 113.457 352.146 113.721C351.515 113.985 350.791 114.118 349.972 114.118C348.771 114.118 347.803 113.866 347.07 113.363C346.338 112.856 345.901 112.151 345.76 111.248L348.017 111.03C348.119 111.473 348.336 111.808 348.669 112.034C349.001 112.26 349.433 112.373 349.966 112.373C350.516 112.373 350.957 112.26 351.289 112.034C351.626 111.808 351.794 111.529 351.794 111.196C351.794 110.915 351.686 110.683 351.468 110.5C351.255 110.316 350.923 110.176 350.471 110.078L348.796 109.726C347.855 109.53 347.158 109.2 346.706 108.735C346.254 108.267 346.031 107.674 346.035 106.958C346.031 106.353 346.195 105.829 346.527 105.386C346.864 104.939 347.33 104.593 347.927 104.35C348.528 104.103 349.22 103.98 350.004 103.98C351.155 103.98 352.061 104.225 352.721 104.715C353.386 105.205 353.797 105.868 353.955 106.703Z" fill="#4A3D90"/>
<path d="M630.444 93.9258V80.8349H635.353C636.358 80.8349 637.202 81.0224 637.884 81.3974C638.57 81.7724 639.088 82.288 639.437 82.9442C639.791 83.5962 639.968 84.3377 639.968 85.1687C639.968 86.0082 639.791 86.7539 639.437 87.4059C639.083 88.0579 638.561 88.5714 637.871 88.9464C637.181 89.3171 636.331 89.5025 635.321 89.5025H632.067V87.5529H635.001C635.589 87.5529 636.071 87.4506 636.446 87.2461C636.821 87.0415 637.098 86.7603 637.277 86.4023C637.46 86.0444 637.551 85.6332 637.551 85.1687C637.551 84.7042 637.46 84.2951 637.277 83.9414C637.098 83.5877 636.819 83.3129 636.439 83.1168C636.064 82.9165 635.581 82.8164 634.988 82.8164H632.815V93.9258H630.444ZM644.575 94.1239C643.953 94.1239 643.392 94.0131 642.894 93.7915C642.399 93.5657 642.007 93.2333 641.718 92.7944C641.432 92.3555 641.289 91.8143 641.289 91.1708C641.289 90.6168 641.392 90.1587 641.596 89.7965C641.801 89.4343 642.08 89.1445 642.433 88.9272C642.787 88.7099 643.186 88.5458 643.629 88.435C644.076 88.32 644.539 88.2369 645.016 88.1857C645.591 88.1261 646.058 88.0728 646.416 88.0259C646.774 87.9748 647.034 87.8981 647.195 87.7958C647.362 87.6893 647.445 87.5252 647.445 87.3036V87.2653C647.445 86.7837 647.302 86.4109 647.017 86.1467C646.731 85.8825 646.32 85.7504 645.783 85.7504C645.216 85.7504 644.767 85.8739 644.434 86.1211C644.106 86.3683 643.884 86.6602 643.769 86.9968L641.609 86.69C641.779 86.0934 642.061 85.5948 642.453 85.1942C642.845 84.7894 643.324 84.4869 643.891 84.2866C644.458 84.082 645.084 83.9798 645.77 83.9798C646.243 83.9798 646.714 84.0352 647.183 84.146C647.651 84.2567 648.08 84.44 648.468 84.6957C648.855 84.9471 649.166 85.2901 649.401 85.7248C649.639 86.1594 649.759 86.7028 649.759 87.3548V93.9258H647.534V92.5771H647.458C647.317 92.8498 647.119 93.1055 646.863 93.3441C646.612 93.5785 646.294 93.7681 645.911 93.913C645.531 94.0536 645.086 94.1239 644.575 94.1239ZM645.176 92.4237C645.64 92.4237 646.043 92.332 646.384 92.1488C646.725 91.9613 646.987 91.7141 647.17 91.4073C647.357 91.1005 647.451 90.766 647.451 90.4038V89.2468C647.379 89.3065 647.255 89.3619 647.08 89.413C646.91 89.4641 646.718 89.5089 646.505 89.5472C646.292 89.5856 646.081 89.6197 645.872 89.6495C645.664 89.6793 645.482 89.7049 645.329 89.7262C644.984 89.7731 644.675 89.8498 644.402 89.9563C644.129 90.0629 643.914 90.212 643.757 90.4038C643.599 90.5913 643.52 90.8342 643.52 91.1325C643.52 91.5586 643.676 91.8803 643.987 92.0977C644.298 92.315 644.694 92.4237 645.176 92.4237ZM659.845 86.7028L657.736 86.9329C657.676 86.7198 657.572 86.5195 657.423 86.332C657.278 86.1445 657.082 85.9933 656.835 85.8782C656.588 85.7631 656.285 85.7056 655.927 85.7056C655.445 85.7056 655.041 85.81 654.713 86.0188C654.389 86.2276 654.229 86.4982 654.233 86.8306C654.229 87.1161 654.333 87.3484 654.546 87.5273C654.764 87.7063 655.122 87.8533 655.62 87.9684L657.295 88.3263C658.224 88.5266 658.914 88.8441 659.366 89.2788C659.822 89.7134 660.052 90.2823 660.056 90.9854C660.052 91.6033 659.871 92.1488 659.513 92.6218C659.159 93.0906 658.667 93.457 658.036 93.7212C657.406 93.9854 656.681 94.1175 655.863 94.1175C654.661 94.1175 653.694 93.8661 652.961 93.3633C652.228 92.8562 651.791 92.1509 651.651 91.2475L653.907 91.0302C654.009 91.4734 654.227 91.8079 654.559 92.0337C654.892 92.2596 655.324 92.3725 655.857 92.3725C656.406 92.3725 656.847 92.2596 657.18 92.0337C657.517 91.8079 657.685 91.5288 657.685 91.1964C657.685 90.9151 657.576 90.6829 657.359 90.4996C657.146 90.3164 656.813 90.1758 656.362 90.0778L654.687 89.7262C653.745 89.5302 653.048 89.1999 652.597 88.7354C652.145 88.2667 651.921 87.6744 651.926 86.9585C651.921 86.3533 652.085 85.8292 652.418 85.386C652.754 84.9386 653.221 84.5934 653.818 84.3505C654.419 84.1033 655.111 83.9798 655.895 83.9798C657.046 83.9798 657.951 84.2248 658.612 84.7148C659.276 85.2049 659.688 85.8675 659.845 86.7028ZM669.724 86.7028L667.615 86.9329C667.555 86.7198 667.451 86.5195 667.302 86.332C667.157 86.1445 666.961 85.9933 666.714 85.8782C666.466 85.7631 666.164 85.7056 665.806 85.7056C665.324 85.7056 664.92 85.81 664.591 86.0188C664.268 86.2276 664.108 86.4982 664.112 86.8306C664.108 87.1161 664.212 87.3484 664.425 87.5273C664.643 87.7063 665.001 87.8533 665.499 87.9684L667.174 88.3263C668.103 88.5266 668.793 88.8441 669.245 89.2788C669.701 89.7134 669.931 90.2823 669.935 90.9854C669.931 91.6033 669.75 92.1488 669.392 92.6218C669.038 93.0906 668.546 93.457 667.915 93.7212C667.285 93.9854 666.56 94.1175 665.742 94.1175C664.54 94.1175 663.573 93.8661 662.84 93.3633C662.107 92.8562 661.67 92.1509 661.53 91.2475L663.786 91.0302C663.888 91.4734 664.106 91.8079 664.438 92.0337C664.77 92.2596 665.203 92.3725 665.736 92.3725C666.285 92.3725 666.726 92.2596 667.059 92.0337C667.395 91.8079 667.564 91.5288 667.564 91.1964C667.564 90.9151 667.455 90.6829 667.238 90.4996C667.025 90.3164 666.692 90.1758 666.241 90.0778L664.566 89.7262C663.624 89.5302 662.927 89.1999 662.476 88.7354C662.024 88.2667 661.8 87.6744 661.805 86.9585C661.8 86.3533 661.964 85.8292 662.297 85.386C662.633 84.9386 663.1 84.5934 663.697 84.3505C664.297 84.1033 664.99 83.9798 665.774 83.9798C666.925 83.9798 667.83 84.2248 668.491 84.7148C669.155 85.2049 669.567 85.8675 669.724 86.7028ZM676.19 94.1175C675.205 94.1175 674.355 93.913 673.639 93.5039C672.928 93.0906 672.38 92.5067 671.997 91.7525C671.613 90.994 671.421 90.1012 671.421 89.0742C671.421 88.0643 671.613 87.1779 671.997 86.4151C672.384 85.6481 672.926 85.0515 673.62 84.6254C674.315 84.195 675.131 83.9798 676.068 83.9798C676.673 83.9798 677.244 84.0778 677.781 84.2738C678.323 84.4656 678.8 84.7638 679.213 85.1687C679.631 85.5735 679.959 86.0891 680.198 86.7156C680.436 87.3377 680.556 88.0792 680.556 88.94V89.6495H672.508V88.0898H678.338C678.333 87.6467 678.237 87.2525 678.05 86.9073C677.862 86.5579 677.6 86.283 677.264 86.0827C676.931 85.8825 676.544 85.7823 676.1 85.7823C675.627 85.7823 675.212 85.8974 674.854 86.1275C674.496 86.3533 674.217 86.6516 674.017 87.0224C673.82 87.3888 673.72 87.7915 673.716 88.2305V89.592C673.716 90.163 673.82 90.6531 674.029 91.0621C674.238 91.467 674.53 91.7781 674.905 91.9954C675.28 92.2085 675.719 92.315 676.222 92.315C676.558 92.315 676.863 92.2681 677.136 92.1744C677.409 92.0763 677.645 91.9336 677.845 91.7461C678.046 91.5586 678.197 91.3263 678.299 91.0494L680.46 91.2923C680.323 91.8633 680.063 92.3619 679.68 92.788C679.301 93.2099 678.815 93.538 678.222 93.7724C677.63 94.0025 676.953 94.1175 676.19 94.1175ZM682.513 93.9258V84.1076H684.827V93.9258H682.513ZM683.676 82.7141C683.31 82.7141 682.995 82.5927 682.73 82.3498C682.466 82.1026 682.334 81.8065 682.334 81.4613C682.334 81.1119 682.466 80.8157 682.73 80.5728C682.995 80.3256 683.31 80.2021 683.676 80.2021C684.047 80.2021 684.363 80.3256 684.623 80.5728C684.887 80.8157 685.019 81.1119 685.019 81.4613C685.019 81.8065 684.887 82.1026 684.623 82.3498C684.363 82.5927 684.047 82.7141 683.676 82.7141ZM691.489 94.1175C690.53 94.1175 689.699 93.9066 688.996 93.4847C688.293 93.0629 687.748 92.4727 687.36 91.7141C686.976 90.9556 686.785 90.0692 686.785 89.055C686.785 88.0408 686.976 87.1523 687.36 86.3896C687.748 85.6268 688.293 85.0344 688.996 84.6126C689.699 84.1907 690.53 83.9798 691.489 83.9798C692.448 83.9798 693.279 84.1907 693.982 84.6126C694.685 85.0344 695.229 85.6268 695.612 86.3896C696 87.1523 696.194 88.0408 696.194 89.055C696.194 90.0692 696 90.9556 695.612 91.7141C695.229 92.4727 694.685 93.0629 693.982 93.4847C693.279 93.9066 692.448 94.1175 691.489 94.1175ZM691.502 92.2638C692.022 92.2638 692.456 92.1211 692.806 91.8356C693.155 91.5458 693.415 91.158 693.586 90.6722C693.76 90.1864 693.848 89.6452 693.848 89.0487C693.848 88.4478 693.76 87.9045 693.586 87.4187C693.415 86.9286 693.155 86.5387 692.806 86.2489C692.456 85.9592 692.022 85.8143 691.502 85.8143C690.969 85.8143 690.526 85.9592 690.172 86.2489C689.823 86.5387 689.561 86.9286 689.386 87.4187C689.216 87.9045 689.131 88.4478 689.131 89.0487C689.131 89.6452 689.216 90.1864 689.386 90.6722C689.561 91.158 689.823 91.5458 690.172 91.8356C690.526 92.1211 690.969 92.2638 691.502 92.2638ZM705.918 86.7028L703.808 86.9329C703.749 86.7198 703.644 86.5195 703.495 86.332C703.35 86.1445 703.154 85.9933 702.907 85.8782C702.66 85.7631 702.357 85.7056 701.999 85.7056C701.518 85.7056 701.113 85.81 700.785 86.0188C700.461 86.2276 700.301 86.4982 700.305 86.8306C700.301 87.1161 700.406 87.3484 700.619 87.5273C700.836 87.7063 701.194 87.8533 701.692 87.9684L703.367 88.3263C704.296 88.5266 704.987 88.8441 705.438 89.2788C705.894 89.7134 706.124 90.2823 706.129 90.9854C706.124 91.6033 705.943 92.1488 705.585 92.6218C705.232 93.0906 704.739 93.457 704.109 93.7212C703.478 93.9854 702.754 94.1175 701.935 94.1175C700.734 94.1175 699.766 93.8661 699.033 93.3633C698.3 92.8562 697.864 92.1509 697.723 91.2475L699.979 91.0302C700.082 91.4734 700.299 91.8079 700.631 92.0337C700.964 92.2596 701.396 92.3725 701.929 92.3725C702.479 92.3725 702.92 92.2596 703.252 92.0337C703.589 91.8079 703.757 91.5288 703.757 91.1964C703.757 90.9151 703.648 90.6829 703.431 90.4996C703.218 90.3164 702.886 90.1758 702.434 90.0778L700.759 89.7262C699.817 89.5302 699.121 89.1999 698.669 88.7354C698.217 88.2667 697.994 87.6744 697.998 86.9585C697.994 86.3533 698.158 85.8292 698.49 85.386C698.827 84.9386 699.293 84.5934 699.89 84.3505C700.491 84.1033 701.183 83.9798 701.967 83.9798C703.118 83.9798 704.023 84.2248 704.684 84.7148C705.349 85.2049 705.76 85.8675 705.918 86.7028ZM641.28 114.118C640.295 114.118 639.445 113.913 638.729 113.504C638.018 113.091 637.47 112.507 637.086 111.752C636.703 110.994 636.511 110.101 636.511 109.074C636.511 108.064 636.703 107.178 637.086 106.415C637.474 105.648 638.015 105.051 638.71 104.625C639.405 104.195 640.221 103.98 641.158 103.98C641.763 103.98 642.334 104.078 642.871 104.274C643.412 104.466 643.89 104.764 644.303 105.169C644.721 105.574 645.049 106.089 645.287 106.716C645.526 107.338 645.645 108.079 645.645 108.94V109.65H637.598V108.09H643.427C643.423 107.647 643.327 107.252 643.14 106.907C642.952 106.558 642.69 106.283 642.354 106.083C642.021 105.882 641.633 105.782 641.19 105.782C640.717 105.782 640.302 105.897 639.944 106.127C639.586 106.353 639.307 106.652 639.106 107.022C638.91 107.389 638.81 107.792 638.806 108.23V109.592C638.806 110.163 638.91 110.653 639.119 111.062C639.328 111.467 639.62 111.778 639.995 111.995C640.37 112.208 640.809 112.315 641.312 112.315C641.648 112.315 641.953 112.268 642.226 112.174C642.498 112.076 642.735 111.934 642.935 111.746C643.135 111.559 643.287 111.326 643.389 111.049L645.55 111.292C645.413 111.863 645.153 112.362 644.77 112.788C644.39 113.21 643.905 113.538 643.312 113.772C642.72 114.002 642.042 114.118 641.28 114.118ZM651.595 102.823V100.835H662.039V102.823H657.993V113.926H655.641V102.823H651.595ZM666.809 114.118C665.851 114.118 665.02 113.907 664.317 113.485C663.613 113.063 663.068 112.473 662.68 111.714C662.297 110.956 662.105 110.069 662.105 109.055C662.105 108.041 662.297 107.152 662.68 106.39C663.068 105.627 663.613 105.034 664.317 104.613C665.02 104.191 665.851 103.98 666.809 103.98C667.768 103.98 668.599 104.191 669.302 104.613C670.006 105.034 670.549 105.627 670.932 106.39C671.32 107.152 671.514 108.041 671.514 109.055C671.514 110.069 671.32 110.956 670.932 111.714C670.549 112.473 670.006 113.063 669.302 113.485C668.599 113.907 667.768 114.118 666.809 114.118ZM666.822 112.264C667.342 112.264 667.777 112.121 668.126 111.836C668.476 111.546 668.736 111.158 668.906 110.672C669.081 110.186 669.168 109.645 669.168 109.049C669.168 108.448 669.081 107.904 668.906 107.419C668.736 106.929 668.476 106.539 668.126 106.249C667.777 105.959 667.342 105.814 666.822 105.814C666.29 105.814 665.846 105.959 665.493 106.249C665.143 106.539 664.881 106.929 664.706 107.419C664.536 107.904 664.451 108.448 664.451 109.049C664.451 109.645 664.536 110.186 664.706 110.672C664.881 111.158 665.143 111.546 665.493 111.836C665.846 112.121 666.29 112.264 666.822 112.264ZM679.736 109.797V104.108H682.05V113.926H679.806V112.181H679.704C679.482 112.73 679.118 113.18 678.611 113.529C678.108 113.879 677.488 114.054 676.751 114.054C676.107 114.054 675.538 113.911 675.044 113.625C674.554 113.336 674.17 112.916 673.893 112.366C673.616 111.812 673.478 111.143 673.478 110.359V104.108H675.792V110.001C675.792 110.623 675.962 111.118 676.303 111.484C676.644 111.85 677.092 112.034 677.646 112.034C677.987 112.034 678.317 111.951 678.636 111.784C678.956 111.618 679.218 111.371 679.423 111.043C679.631 110.711 679.736 110.295 679.736 109.797ZM684.429 113.926V104.108H686.673V105.744H686.775C686.954 105.177 687.261 104.74 687.695 104.434C688.134 104.123 688.635 103.967 689.198 103.967C689.325 103.967 689.468 103.973 689.626 103.986C689.788 103.995 689.922 104.01 690.029 104.031V106.159C689.931 106.125 689.775 106.096 689.562 106.07C689.353 106.04 689.151 106.025 688.955 106.025C688.533 106.025 688.154 106.117 687.817 106.3C687.485 106.479 687.222 106.728 687.031 107.048C686.839 107.368 686.743 107.736 686.743 108.154V113.926H684.429ZM699.326 106.703L697.216 106.933C697.157 106.72 697.052 106.52 696.903 106.332C696.758 106.145 696.562 105.993 696.315 105.878C696.068 105.763 695.765 105.706 695.407 105.706C694.926 105.706 694.521 105.81 694.193 106.019C693.869 106.228 693.709 106.498 693.714 106.831C693.709 107.116 693.814 107.348 694.027 107.527C694.244 107.706 694.602 107.853 695.101 107.968L696.775 108.326C697.704 108.527 698.395 108.844 698.846 109.279C699.302 109.713 699.532 110.282 699.537 110.985C699.532 111.603 699.351 112.149 698.993 112.622C698.64 113.091 698.148 113.457 697.517 113.721C696.886 113.985 696.162 114.118 695.344 114.118C694.142 114.118 693.175 113.866 692.442 113.363C691.709 112.856 691.272 112.151 691.131 111.248L693.388 111.03C693.49 111.473 693.707 111.808 694.04 112.034C694.372 112.26 694.805 112.373 695.337 112.373C695.887 112.373 696.328 112.26 696.66 112.034C696.997 111.808 697.165 111.529 697.165 111.196C697.165 110.915 697.057 110.683 696.839 110.5C696.626 110.316 696.294 110.176 695.842 110.078L694.167 109.726C693.226 109.53 692.529 109.2 692.077 108.735C691.626 108.267 691.402 107.674 691.406 106.958C691.402 106.353 691.566 105.829 691.898 105.386C692.235 104.939 692.702 104.593 693.298 104.35C693.899 104.103 694.591 103.98 695.376 103.98C696.526 103.98 697.432 104.225 698.092 104.715C698.757 105.205 699.168 105.868 699.326 106.703Z" fill="#4A3D90"/>
<path d="M805.347 95.0153C805.241 94.6701 805.094 94.3612 804.906 94.0884C804.723 93.8114 804.501 93.5749 804.241 93.3789C803.986 93.1829 803.692 93.0359 803.359 92.9379C803.027 92.8356 802.665 92.7844 802.273 92.7844C801.57 92.7844 800.943 92.9613 800.393 93.315C799.844 93.6687 799.411 94.1886 799.096 94.8746C798.785 95.5565 798.629 96.3874 798.629 97.3675C798.629 98.3562 798.785 99.1935 799.096 99.8796C799.407 100.566 799.839 101.088 800.393 101.446C800.947 101.799 801.591 101.976 802.324 101.976C802.989 101.976 803.564 101.848 804.05 101.593C804.54 101.337 804.917 100.975 805.181 100.506C805.445 100.033 805.577 99.479 805.577 98.8441L806.114 98.9272H802.56V97.0735H807.872V98.646C807.872 99.7667 807.633 100.736 807.156 101.554C806.679 102.373 806.023 103.003 805.187 103.446C804.352 103.885 803.393 104.105 802.311 104.105C801.105 104.105 800.046 103.834 799.134 103.293C798.226 102.748 797.517 101.974 797.006 100.973C796.498 99.967 796.245 98.7738 796.245 97.3931C796.245 96.3363 796.394 95.3924 796.692 94.5614C796.995 93.7305 797.417 93.0252 797.958 92.4457C798.499 91.8619 799.134 91.4187 799.863 91.1161C800.592 90.8093 801.384 90.6559 802.241 90.6559C802.965 90.6559 803.641 90.7624 804.267 90.9755C804.893 91.1843 805.449 91.4826 805.935 91.8704C806.425 92.2582 806.828 92.7184 807.143 93.2511C807.459 93.7837 807.665 94.3718 807.763 95.0153H805.347ZM812.888 104.124C812.266 104.124 811.706 104.013 811.207 103.792C810.713 103.566 810.321 103.233 810.031 102.794C809.745 102.355 809.603 101.814 809.603 101.171C809.603 100.617 809.705 100.159 809.91 99.7965C810.114 99.4343 810.393 99.1445 810.747 98.9272C811.101 98.7099 811.499 98.5458 811.942 98.435C812.39 98.32 812.852 98.2369 813.329 98.1857C813.905 98.1261 814.371 98.0728 814.729 98.0259C815.087 97.9748 815.347 97.8981 815.509 97.7958C815.675 97.6893 815.758 97.5252 815.758 97.3036V97.2653C815.758 96.7837 815.616 96.4109 815.33 96.1467C815.044 95.8825 814.633 95.7504 814.096 95.7504C813.53 95.7504 813.08 95.8739 812.748 96.1211C812.419 96.3683 812.198 96.6602 812.083 96.9968L809.922 96.69C810.093 96.0934 810.374 95.5948 810.766 95.1942C811.158 94.7894 811.638 94.4869 812.204 94.2866C812.771 94.082 813.397 93.9798 814.084 93.9798C814.557 93.9798 815.027 94.0352 815.496 94.146C815.965 94.2567 816.393 94.44 816.781 94.6957C817.169 94.9471 817.48 95.2901 817.714 95.7248C817.953 96.1594 818.072 96.7028 818.072 97.3548V103.926H815.848V102.577H815.771C815.63 102.85 815.432 103.105 815.177 103.344C814.925 103.578 814.608 103.768 814.224 103.913C813.845 104.054 813.4 104.124 812.888 104.124ZM813.489 102.424C813.954 102.424 814.356 102.332 814.697 102.149C815.038 101.961 815.3 101.714 815.483 101.407C815.671 101.1 815.765 100.766 815.765 100.404V99.2468C815.692 99.3065 815.569 99.3619 815.394 99.413C815.223 99.4641 815.032 99.5089 814.819 99.5472C814.606 99.5856 814.395 99.6197 814.186 99.6495C813.977 99.6793 813.796 99.7049 813.642 99.7262C813.297 99.7731 812.988 99.8498 812.716 99.9563C812.443 100.063 812.228 100.212 812.07 100.404C811.912 100.591 811.834 100.834 811.834 101.132C811.834 101.559 811.989 101.88 812.3 102.098C812.611 102.315 813.008 102.424 813.489 102.424ZM828.159 96.7028L826.049 96.9329C825.99 96.7198 825.885 96.5195 825.736 96.332C825.591 96.1445 825.395 95.9933 825.148 95.8782C824.901 95.7631 824.598 95.7056 824.241 95.7056C823.759 95.7056 823.354 95.81 823.026 96.0188C822.702 96.2276 822.542 96.4982 822.547 96.8306C822.542 97.1161 822.647 97.3484 822.86 97.5273C823.077 97.7063 823.435 97.8533 823.934 97.9684L825.608 98.3263C826.537 98.5266 827.228 98.8441 827.679 99.2788C828.135 99.7134 828.366 100.282 828.37 100.985C828.366 101.603 828.184 102.149 827.826 102.622C827.473 103.091 826.981 103.457 826.35 103.721C825.719 103.985 824.995 104.118 824.177 104.118C822.975 104.118 822.008 103.866 821.275 103.363C820.542 102.856 820.105 102.151 819.964 101.248L822.221 101.03C822.323 101.473 822.54 101.808 822.873 102.034C823.205 102.26 823.638 102.373 824.17 102.373C824.72 102.373 825.161 102.26 825.493 102.034C825.83 101.808 825.998 101.529 825.998 101.196C825.998 100.915 825.89 100.683 825.672 100.5C825.459 100.316 825.127 100.176 824.675 100.078L823 99.7262C822.059 99.5302 821.362 99.1999 820.91 98.7354C820.459 98.2667 820.235 97.6744 820.239 96.9585C820.235 96.3533 820.399 95.8292 820.731 95.386C821.068 94.9386 821.535 94.5934 822.131 94.3505C822.732 94.1033 823.424 93.9798 824.209 93.9798C825.359 93.9798 826.265 94.2248 826.925 94.7148C827.59 95.2049 828.001 95.8675 828.159 96.7028ZM835.18 94.1076V95.8974H829.536V94.1076H835.18ZM830.93 91.7553H833.244V100.973C833.244 101.284 833.291 101.522 833.384 101.689C833.482 101.85 833.61 101.961 833.768 102.021C833.926 102.081 834.1 102.11 834.292 102.11C834.437 102.11 834.569 102.1 834.688 102.078C834.812 102.057 834.906 102.038 834.97 102.021L835.359 103.83C835.236 103.873 835.059 103.919 834.829 103.971C834.603 104.022 834.326 104.051 833.998 104.06C833.418 104.077 832.896 103.99 832.432 103.798C831.967 103.602 831.599 103.299 831.326 102.89C831.058 102.481 830.926 101.97 830.93 101.356V91.7553ZM837.116 103.926V94.1076H839.359V95.744H839.462C839.641 95.1772 839.947 94.7404 840.382 94.4336C840.821 94.1225 841.322 93.967 841.884 93.967C842.012 93.967 842.155 93.9734 842.312 93.9861C842.474 93.9947 842.609 94.0096 842.715 94.0309V96.1594C842.617 96.1254 842.462 96.0955 842.248 96.07C842.04 96.0401 841.837 96.0252 841.641 96.0252C841.219 96.0252 840.84 96.1168 840.503 96.3001C840.171 96.479 839.909 96.7283 839.717 97.0479C839.525 97.3675 839.43 97.7362 839.43 98.1538V103.926H837.116ZM848.131 104.118C847.172 104.118 846.341 103.907 845.638 103.485C844.935 103.063 844.389 102.473 844.002 101.714C843.618 100.956 843.426 100.069 843.426 99.055C843.426 98.0408 843.618 97.1523 844.002 96.3896C844.389 95.6268 844.935 95.0344 845.638 94.6126C846.341 94.1907 847.172 93.9798 848.131 93.9798C849.09 93.9798 849.921 94.1907 850.624 94.6126C851.327 95.0344 851.87 95.6268 852.254 96.3896C852.641 97.1523 852.835 98.0408 852.835 99.055C852.835 100.069 852.641 100.956 852.254 101.714C851.87 102.473 851.327 103.063 850.624 103.485C849.921 103.907 849.09 104.118 848.131 104.118ZM848.144 102.264C848.663 102.264 849.098 102.121 849.448 101.836C849.797 101.546 850.057 101.158 850.227 100.672C850.402 100.186 850.489 99.6452 850.489 99.0487C850.489 98.4478 850.402 97.9045 850.227 97.4187C850.057 96.9286 849.797 96.5387 849.448 96.2489C849.098 95.9592 848.663 95.8143 848.144 95.8143C847.611 95.8143 847.168 95.9592 846.814 96.2489C846.465 96.5387 846.203 96.9286 846.028 97.4187C845.857 97.9045 845.772 98.4478 845.772 99.0487C845.772 99.6452 845.857 100.186 846.028 100.672C846.203 101.158 846.465 101.546 846.814 101.836C847.168 102.121 847.611 102.264 848.144 102.264ZM857.113 98.1729V103.926H854.799V94.1076H857.011V95.7759H857.126C857.352 95.2262 857.712 94.7894 858.206 94.4656C858.705 94.1417 859.321 93.9798 860.054 93.9798C860.731 93.9798 861.321 94.1246 861.824 94.4144C862.331 94.7042 862.723 95.1239 863 95.6737C863.282 96.2234 863.42 96.8903 863.416 97.6744V103.926H861.102V98.0323C861.102 97.3761 860.931 96.8626 860.59 96.4918C860.254 96.1211 859.787 95.9357 859.191 95.9357C858.786 95.9357 858.426 96.0252 858.11 96.2042C857.799 96.3789 857.554 96.6325 857.375 96.9648C857.201 97.2972 857.113 97.6999 857.113 98.1729ZM870.051 104.118C869.092 104.118 868.261 103.907 867.558 103.485C866.855 103.063 866.309 102.473 865.921 101.714C865.538 100.956 865.346 100.069 865.346 99.055C865.346 98.0408 865.538 97.1523 865.921 96.3896C866.309 95.6268 866.855 95.0344 867.558 94.6126C868.261 94.1907 869.092 93.9798 870.051 93.9798C871.009 93.9798 871.84 94.1907 872.544 94.6126C873.247 95.0344 873.79 95.6268 874.174 96.3896C874.561 97.1523 874.755 98.0408 874.755 99.055C874.755 100.069 874.561 100.956 874.174 101.714C873.79 102.473 873.247 103.063 872.544 103.485C871.84 103.907 871.009 104.118 870.051 104.118ZM870.063 102.264C870.583 102.264 871.018 102.121 871.367 101.836C871.717 101.546 871.977 101.158 872.147 100.672C872.322 100.186 872.409 99.6452 872.409 99.0487C872.409 98.4478 872.322 97.9045 872.147 97.4187C871.977 96.9286 871.717 96.5387 871.367 96.2489C871.018 95.9592 870.583 95.8143 870.063 95.8143C869.531 95.8143 869.088 95.9592 868.734 96.2489C868.384 96.5387 868.122 96.9286 867.948 97.4187C867.777 97.9045 867.692 98.4478 867.692 99.0487C867.692 99.6452 867.777 100.186 867.948 100.672C868.122 101.158 868.384 101.546 868.734 101.836C869.088 102.121 869.531 102.264 870.063 102.264ZM876.719 103.926V94.1076H878.931V95.7759H879.046C879.25 95.2134 879.589 94.7745 880.062 94.4592C880.535 94.1396 881.1 93.9798 881.756 93.9798C882.421 93.9798 882.981 94.1417 883.437 94.4656C883.897 94.7852 884.221 95.2219 884.409 95.7759H884.511C884.728 95.2305 885.095 94.7958 885.611 94.4719C886.13 94.1438 886.746 93.9798 887.458 93.9798C888.361 93.9798 889.098 94.2653 889.669 94.8363C890.241 95.4073 890.526 96.2404 890.526 97.3356V103.926H888.206V97.6935C888.206 97.0842 888.044 96.6388 887.72 96.3576C887.396 96.0721 887 95.9293 886.531 95.9293C885.973 95.9293 885.536 96.104 885.221 96.4535C884.91 96.7987 884.754 97.2482 884.754 97.8022V103.926H882.485V97.5977C882.485 97.0906 882.331 96.6857 882.025 96.3832C881.722 96.0806 881.326 95.9293 880.836 95.9293C880.503 95.9293 880.201 96.0146 879.928 96.185C879.655 96.3512 879.438 96.5877 879.276 96.8945C879.114 97.1971 879.033 97.5508 879.033 97.9556V103.926H876.719ZM892.873 103.926V94.1076H895.187V103.926H892.873ZM894.037 92.7141C893.67 92.7141 893.355 92.5927 893.091 92.3498C892.827 92.1026 892.695 91.8065 892.695 91.4613C892.695 91.1119 892.827 90.8157 893.091 90.5728C893.355 90.3256 893.67 90.2021 894.037 90.2021C894.408 90.2021 894.723 90.3256 894.983 90.5728C895.247 90.8157 895.379 91.1119 895.379 91.4613C895.379 91.8065 895.247 92.1026 894.983 92.3498C894.723 92.5927 894.408 92.7141 894.037 92.7141ZM900.392 104.124C899.77 104.124 899.21 104.013 898.711 103.792C898.217 103.566 897.825 103.233 897.535 102.794C897.249 102.355 897.107 101.814 897.107 101.171C897.107 100.617 897.209 100.159 897.413 99.7965C897.618 99.4343 897.897 99.1445 898.251 98.9272C898.604 98.7099 899.003 98.5458 899.446 98.435C899.894 98.32 900.356 98.2369 900.833 98.1857C901.408 98.1261 901.875 98.0728 902.233 98.0259C902.591 97.9748 902.851 97.8981 903.013 97.7958C903.179 97.6893 903.262 97.5252 903.262 97.3036V97.2653C903.262 96.7837 903.119 96.4109 902.834 96.1467C902.548 95.8825 902.137 95.7504 901.6 95.7504C901.033 95.7504 900.584 95.8739 900.252 96.1211C899.923 96.3683 899.702 96.6602 899.587 96.9968L897.426 96.69C897.597 96.0934 897.878 95.5948 898.27 95.1942C898.662 94.7894 899.141 94.4869 899.708 94.2866C900.275 94.082 900.901 93.9798 901.587 93.9798C902.06 93.9798 902.531 94.0352 903 94.146C903.469 94.2567 903.897 94.44 904.285 94.6957C904.673 94.9471 904.984 95.2901 905.218 95.7248C905.457 96.1594 905.576 96.7028 905.576 97.3548V103.926H903.352V102.577H903.275C903.134 102.85 902.936 103.105 902.68 103.344C902.429 103.578 902.112 103.768 901.728 103.913C901.349 104.054 900.903 104.124 900.392 104.124ZM900.993 102.424C901.457 102.424 901.86 102.332 902.201 102.149C902.542 101.961 902.804 101.714 902.987 101.407C903.175 101.1 903.269 100.766 903.269 100.404V99.2468C903.196 99.3065 903.073 99.3619 902.898 99.413C902.727 99.4641 902.536 99.5089 902.323 99.5472C902.109 99.5856 901.899 99.6197 901.69 99.6495C901.481 99.6793 901.3 99.7049 901.146 99.7262C900.801 99.7731 900.492 99.8498 900.22 99.9563C899.947 100.063 899.732 100.212 899.574 100.404C899.416 100.591 899.337 100.834 899.337 101.132C899.337 101.559 899.493 101.88 899.804 102.098C900.115 102.315 900.511 102.424 900.993 102.424Z" fill="#4A3D90"/>
<path d="M1013.58 103.926V90.8349H1018.49C1019.5 90.8349 1020.34 91.0224 1021.02 91.3974C1021.71 91.7724 1022.22 92.288 1022.57 92.9442C1022.93 93.5962 1023.1 94.3377 1023.1 95.1687C1023.1 96.0082 1022.93 96.7539 1022.57 97.4059C1022.22 98.0579 1021.7 98.5714 1021.01 98.9464C1020.32 99.3171 1019.47 99.5025 1018.46 99.5025H1015.2V97.5529H1018.14C1018.73 97.5529 1019.21 97.4506 1019.58 97.2461C1019.96 97.0415 1020.23 96.7603 1020.41 96.4023C1020.6 96.0444 1020.69 95.6332 1020.69 95.1687C1020.69 94.7042 1020.6 94.2951 1020.41 93.9414C1020.23 93.5877 1019.96 93.3129 1019.58 93.1168C1019.2 92.9165 1018.72 92.8164 1018.12 92.8164H1015.95V103.926H1013.58ZM1025.06 103.926V94.1076H1027.31V95.744H1027.41C1027.59 95.1772 1027.89 94.7404 1028.33 94.4336C1028.77 94.1225 1029.27 93.967 1029.83 93.967C1029.96 93.967 1030.1 93.9734 1030.26 93.9861C1030.42 93.9947 1030.55 94.0096 1030.66 94.0309V96.1594C1030.56 96.1254 1030.41 96.0955 1030.19 96.07C1029.99 96.0401 1029.78 96.0252 1029.59 96.0252C1029.17 96.0252 1028.79 96.1168 1028.45 96.3001C1028.12 96.479 1027.86 96.7283 1027.66 97.0479C1027.47 97.3675 1027.38 97.7362 1027.38 98.1538V103.926H1025.06ZM1032.2 103.926V94.1076H1034.51V103.926H1032.2ZM1033.36 92.7141C1033 92.7141 1032.68 92.5927 1032.42 92.3498C1032.15 92.1026 1032.02 91.8065 1032.02 91.4613C1032.02 91.1119 1032.15 90.8157 1032.42 90.5728C1032.68 90.3256 1033 90.2021 1033.36 90.2021C1033.73 90.2021 1034.05 90.3256 1034.31 90.5728C1034.57 90.8157 1034.7 91.1119 1034.7 91.4613C1034.7 91.8065 1034.57 92.1026 1034.31 92.3498C1034.05 92.5927 1033.73 92.7141 1033.36 92.7141ZM1040.54 104.098C1039.76 104.098 1039.07 103.9 1038.46 103.504C1037.86 103.108 1037.37 102.532 1037.02 101.778C1036.67 101.024 1036.49 100.108 1036.49 99.0295C1036.49 97.9386 1036.67 97.0181 1037.03 96.2681C1037.39 95.5138 1037.88 94.945 1038.49 94.5614C1039.1 94.1737 1039.79 93.9798 1040.54 93.9798C1041.12 93.9798 1041.59 94.0778 1041.96 94.2738C1042.33 94.4656 1042.63 94.6978 1042.84 94.9705C1043.06 95.239 1043.23 95.4925 1043.35 95.7312H1043.44V90.8349H1045.76V103.926H1043.49V102.379H1043.35C1043.23 102.618 1043.06 102.871 1042.83 103.14C1042.6 103.404 1042.31 103.63 1041.94 103.817C1041.56 104.005 1041.1 104.098 1040.54 104.098ZM1041.18 102.2C1041.67 102.2 1042.09 102.068 1042.43 101.804C1042.78 101.535 1043.04 101.162 1043.22 100.685C1043.4 100.208 1043.49 99.6516 1043.49 99.0167C1043.49 98.3817 1043.4 97.8299 1043.22 97.3612C1043.05 96.8924 1042.79 96.5281 1042.44 96.2681C1042.1 96.0082 1041.68 95.8782 1041.18 95.8782C1040.67 95.8782 1040.24 96.0124 1039.89 96.2809C1039.54 96.5494 1039.28 96.9201 1039.11 97.3931C1038.94 97.8661 1038.85 98.4073 1038.85 99.0167C1038.85 99.6303 1038.94 100.178 1039.11 100.659C1039.29 101.137 1039.55 101.514 1039.9 101.791C1040.25 102.064 1040.67 102.2 1041.18 102.2ZM1052.58 104.118C1051.59 104.118 1050.74 103.913 1050.03 103.504C1049.31 103.091 1048.77 102.507 1048.38 101.752C1048 100.994 1047.81 100.101 1047.81 99.0742C1047.81 98.0643 1048 97.1779 1048.38 96.4151C1048.77 95.6481 1049.31 95.0515 1050.01 94.6254C1050.7 94.195 1051.52 93.9798 1052.46 93.9798C1053.06 93.9798 1053.63 94.0778 1054.17 94.2738C1054.71 94.4656 1055.19 94.7638 1055.6 95.1687C1056.02 95.5735 1056.35 96.0891 1056.58 96.7156C1056.82 97.3377 1056.94 98.0792 1056.94 98.94V99.6495H1048.89V98.0898H1054.72C1054.72 97.6467 1054.62 97.2525 1054.44 96.9073C1054.25 96.5579 1053.99 96.283 1053.65 96.0827C1053.32 95.8825 1052.93 95.7823 1052.49 95.7823C1052.01 95.7823 1051.6 95.8974 1051.24 96.1275C1050.88 96.3533 1050.6 96.6516 1050.4 97.0224C1050.21 97.3888 1050.11 97.7915 1050.1 98.2305V99.592C1050.1 100.163 1050.21 100.653 1050.42 101.062C1050.62 101.467 1050.92 101.778 1051.29 101.995C1051.67 102.208 1052.11 102.315 1052.61 102.315C1052.95 102.315 1053.25 102.268 1053.52 102.174C1053.8 102.076 1054.03 101.934 1054.23 101.746C1054.43 101.559 1054.58 101.326 1054.69 101.049L1056.85 101.292C1056.71 101.863 1056.45 102.362 1056.07 102.788C1055.69 103.21 1055.2 103.538 1054.61 103.772C1054.02 104.002 1053.34 104.118 1052.58 104.118Z" fill="#4A3D90"/>
<path d="M1191.72 90.8349V103.926H1189.35V90.8349H1191.72ZM1196.5 98.1729V103.926H1194.18V94.1076H1196.4V95.7759H1196.51C1196.74 95.2262 1197.1 94.7894 1197.59 94.4656C1198.09 94.1417 1198.71 93.9798 1199.44 93.9798C1200.12 93.9798 1200.71 94.1246 1201.21 94.4144C1201.72 94.7042 1202.11 95.1239 1202.39 95.6737C1202.67 96.2234 1202.8 96.8903 1202.8 97.6744V103.926H1200.49V98.0323C1200.49 97.3761 1200.32 96.8626 1199.98 96.4918C1199.64 96.1211 1199.17 95.9357 1198.58 95.9357C1198.17 95.9357 1197.81 96.0252 1197.5 96.2042C1197.18 96.3789 1196.94 96.6325 1196.76 96.9648C1196.59 97.2972 1196.5 97.6999 1196.5 98.1729ZM1210.13 94.1076V95.8974H1204.32V94.1076H1210.13ZM1205.77 103.926V93.1808C1205.77 92.5202 1205.91 91.9705 1206.18 91.5316C1206.46 91.0927 1206.83 90.7646 1207.29 90.5472C1207.76 90.3299 1208.27 90.2212 1208.84 90.2212C1209.24 90.2212 1209.6 90.2532 1209.91 90.3171C1210.22 90.381 1210.45 90.4386 1210.6 90.4897L1210.14 92.2795C1210.04 92.2496 1209.92 92.2198 1209.77 92.19C1209.62 92.1559 1209.45 92.1388 1209.27 92.1388C1208.84 92.1388 1208.53 92.2433 1208.36 92.4521C1208.18 92.6566 1208.09 92.9506 1208.09 93.3342V103.926H1205.77ZM1214.43 104.124C1213.81 104.124 1213.25 104.013 1212.75 103.792C1212.25 103.566 1211.86 103.233 1211.57 102.794C1211.29 102.355 1211.14 101.814 1211.14 101.171C1211.14 100.617 1211.25 100.159 1211.45 99.7965C1211.66 99.4343 1211.93 99.1445 1212.29 98.9272C1212.64 98.7099 1213.04 98.5458 1213.48 98.435C1213.93 98.32 1214.39 98.2369 1214.87 98.1857C1215.45 98.1261 1215.91 98.0728 1216.27 98.0259C1216.63 97.9748 1216.89 97.8981 1217.05 97.7958C1217.22 97.6893 1217.3 97.5252 1217.3 97.3036V97.2653C1217.3 96.7837 1217.16 96.4109 1216.87 96.1467C1216.59 95.8825 1216.17 95.7504 1215.64 95.7504C1215.07 95.7504 1214.62 95.8739 1214.29 96.1211C1213.96 96.3683 1213.74 96.6602 1213.62 96.9968L1211.46 96.69C1211.63 96.0934 1211.92 95.5948 1212.31 95.1942C1212.7 94.7894 1213.18 94.4869 1213.75 94.2866C1214.31 94.082 1214.94 93.9798 1215.62 93.9798C1216.1 93.9798 1216.57 94.0352 1217.04 94.146C1217.51 94.2567 1217.93 94.44 1218.32 94.6957C1218.71 94.9471 1219.02 95.2901 1219.26 95.7248C1219.49 96.1594 1219.61 96.7028 1219.61 97.3548V103.926H1217.39V102.577H1217.31C1217.17 102.85 1216.97 103.105 1216.72 103.344C1216.47 103.578 1216.15 103.768 1215.77 103.913C1215.39 104.054 1214.94 104.124 1214.43 104.124ZM1215.03 102.424C1215.49 102.424 1215.9 102.332 1216.24 102.149C1216.58 101.961 1216.84 101.714 1217.02 101.407C1217.21 101.1 1217.31 100.766 1217.31 100.404V99.2468C1217.23 99.3065 1217.11 99.3619 1216.93 99.413C1216.76 99.4641 1216.57 99.5089 1216.36 99.5472C1216.15 99.5856 1215.94 99.6197 1215.73 99.6495C1215.52 99.6793 1215.34 99.7049 1215.18 99.7262C1214.84 99.7731 1214.53 99.8498 1214.26 99.9563C1213.98 100.063 1213.77 100.212 1213.61 100.404C1213.45 100.591 1213.37 100.834 1213.37 101.132C1213.37 101.559 1213.53 101.88 1213.84 102.098C1214.15 102.315 1214.55 102.424 1215.03 102.424ZM1224.25 98.1729V103.926H1221.94V94.1076H1224.15V95.7759H1224.27C1224.49 95.2262 1224.85 94.7894 1225.35 94.4656C1225.85 94.1417 1226.46 93.9798 1227.19 93.9798C1227.87 93.9798 1228.46 94.1246 1228.96 94.4144C1229.47 94.7042 1229.86 95.1239 1230.14 95.6737C1230.42 96.2234 1230.56 96.8903 1230.56 97.6744V103.926H1228.24V98.0323C1228.24 97.3761 1228.07 96.8626 1227.73 96.4918C1227.39 96.1211 1226.93 95.9357 1226.33 95.9357C1225.93 95.9357 1225.57 96.0252 1225.25 96.2042C1224.94 96.3789 1224.69 96.6325 1224.52 96.9648C1224.34 97.2972 1224.25 97.6999 1224.25 98.1729ZM1237.81 94.1076V95.8974H1232.17V94.1076H1237.81ZM1233.56 91.7553H1235.87V100.973C1235.87 101.284 1235.92 101.522 1236.02 101.689C1236.11 101.85 1236.24 101.961 1236.4 102.021C1236.56 102.081 1236.73 102.11 1236.92 102.11C1237.07 102.11 1237.2 102.1 1237.32 102.078C1237.44 102.057 1237.54 102.038 1237.6 102.021L1237.99 103.83C1237.87 103.873 1237.69 103.919 1237.46 103.971C1237.23 104.022 1236.96 104.051 1236.63 104.06C1236.05 104.077 1235.53 103.99 1235.06 103.798C1234.6 103.602 1234.23 103.299 1233.96 102.89C1233.69 102.481 1233.56 101.97 1233.56 101.356V91.7553ZM1239.75 103.926V94.1076H1242.06V103.926H1239.75ZM1240.91 92.7141C1240.54 92.7141 1240.23 92.5927 1239.96 92.3498C1239.7 92.1026 1239.57 91.8065 1239.57 91.4613C1239.57 91.1119 1239.7 90.8157 1239.96 90.5728C1240.23 90.3256 1240.54 90.2021 1240.91 90.2021C1241.28 90.2021 1241.6 90.3256 1241.86 90.5728C1242.12 90.8157 1242.25 91.1119 1242.25 91.4613C1242.25 91.8065 1242.12 92.1026 1241.86 92.3498C1241.6 92.5927 1241.28 92.7141 1240.91 92.7141ZM1246.75 90.8349V103.926H1244.44V90.8349H1246.75Z" fill="#4A3D90"/>
<path d="M294.835 188.021C241.347 187.311 206.343 141.8 206.503 100" stroke="#E3E3E3" stroke-width="5"/>
<path d="M110.835 8.33011C57.3473 9.04045 22.3432 54.5512 22.5031 96.3513" stroke="#E3E3E3" stroke-width="5"/>
<path d="M118.241 8.33011C171.729 9.04045 206.733 54.5512 206.573 96.3513" stroke="#E3E3E3" stroke-width="5"/>
<path d="M301.241 188.021C354.729 187.311 389.733 141.8 389.573 100" stroke="#E3E3E3" stroke-width="5"/>
<path d="M661.835 188.021C608.347 187.311 573.343 141.8 573.503 100" stroke="#E3E3E3" stroke-width="5"/>
<path d="M477.835 8.33011C424.347 9.04045 389.343 54.5512 389.503 96.3513" stroke="#E3E3E3" stroke-width="5"/>
<path d="M485.241 8.33011C538.729 9.04045 573.733 54.5512 573.573 96.3513" stroke="#E3E3E3" stroke-width="5"/>
<path d="M668.241 188.021C721.729 187.311 756.733 141.8 756.573 100" stroke="#E3E3E3" stroke-width="5"/>
<path d="M1028.83 188.021C975.347 187.311 940.343 141.8 940.503 100" stroke="#E3E3E3" stroke-width="5"/>
<path d="M844.835 8.33011C791.347 9.04045 756.343 54.5512 756.503 96.3513" stroke="#E3E3E3" stroke-width="5"/>
<path d="M852.241 8.33011C905.729 9.04045 940.733 54.5512 940.573 96.3513" stroke="#E3E3E3" stroke-width="5"/>
<path d="M1035.24 188.021C1088.73 187.311 1123.73 141.8 1123.57 100" stroke="#E3E3E3" stroke-width="5"/>
<path d="M1211.83 8.33011C1158.35 9.04045 1123.34 54.5512 1123.5 96.3513" stroke="#E3E3E3" stroke-width="5"/>
<path d="M1219.24 8.33011C1272.73 9.04045 1307.73 54.5512 1307.57 96.3513" stroke="#E3E3E3" stroke-width="5"/>
<defs>
<linearGradient id="paint0_linear_4_154" x1="42" y1="23.9258" x2="188.173" y2="25.118" gradientUnits="userSpaceOnUse">
<stop stop-color="#5B2591"/>
<stop offset="1" stop-color="#53AFED"/>
</linearGradient>
<linearGradient id="paint1_linear_4_154" x1="409" y1="23.9258" x2="555.173" y2="25.118" gradientUnits="userSpaceOnUse">
<stop stop-color="#5B2591"/>
<stop offset="1" stop-color="#53AFED"/>
</linearGradient>
<linearGradient id="paint2_linear_4_154" x1="226" y1="23.9258" x2="372.173" y2="25.118" gradientUnits="userSpaceOnUse">
<stop stop-color="#5B2591"/>
<stop offset="1" stop-color="#53AFED"/>
</linearGradient>
<linearGradient id="paint3_linear_4_154" x1="593" y1="23.9258" x2="739.173" y2="25.118" gradientUnits="userSpaceOnUse">
<stop stop-color="#5B2591"/>
<stop offset="1" stop-color="#53AFED"/>
</linearGradient>
<linearGradient id="paint4_linear_4_154" x1="776" y1="23.9258" x2="922.173" y2="25.118" gradientUnits="userSpaceOnUse">
<stop stop-color="#5B2591"/>
<stop offset="1" stop-color="#53AFED"/>
</linearGradient>
<linearGradient id="paint5_linear_4_154" x1="960" y1="23.9258" x2="1106.17" y2="25.118" gradientUnits="userSpaceOnUse">
<stop stop-color="#5B2591"/>
<stop offset="1" stop-color="#53AFED"/>
</linearGradient>
<linearGradient id="paint6_linear_4_154" x1="1143" y1="23.9258" x2="1289.17" y2="25.118" gradientUnits="userSpaceOnUse">
<stop stop-color="#5B2591"/>
<stop offset="1" stop-color="#53AFED"/>
</linearGradient>
</defs>
</svg>
