<svg width="284" height="131" viewBox="0 0 284 131" fill="none" xmlns="http://www.w3.org/2000/svg">
<path d="M251.865 128.683C230.108 87.9396 194.007 57.8037 149.923 43.6615C105.836 29.5225 58.9398 33.038 17.5408 53.527C16.1465 54.2176 14.4677 53.6865 13.7557 52.302L0.320483 26.1781C-0.416143 24.7476 0.161027 22.962 1.60139 22.2467C51.3121 -2.47955 107.672 -6.75792 160.645 10.2322C213.62 27.2239 256.975 63.4896 283.03 112.516C283.785 113.935 283.216 115.724 281.784 116.459L255.667 129.889C255.254 130.103 254.813 130.204 254.379 130.204C253.361 130.204 252.381 129.648 251.865 128.683Z" fill="url(#paint0_linear_709_3061)"/>
<defs>
<linearGradient id="paint0_linear_709_3061" x1="-8.07025" y1="-27.7904" x2="544.127" y2="298.097" gradientUnits="userSpaceOnUse">
<stop stop-color="#8033CC"/>
<stop offset="1" stop-color="#05B49D"/>
</linearGradient>
</defs>
</svg>
