<svg width="20" height="20" viewBox="0 0 20 20" fill="none" xmlns="http://www.w3.org/2000/svg">
<path d="M1.66699 6.66536C1.66699 6.20513 2.04009 5.83203 2.50033 5.83203H17.5003C17.9606 5.83203 18.3337 6.20513 18.3337 6.66536C18.3337 7.1256 17.9606 7.4987 17.5003 7.4987H2.50033C2.04009 7.4987 1.66699 7.1256 1.66699 6.66536Z" fill="#4B16C9"/>
<path d="M1.66699 10.0013C1.66699 9.54105 2.04009 9.16797 2.50033 9.16797H17.5003C17.9606 9.16797 18.3337 9.54105 18.3337 10.0013C18.3337 10.4616 17.9606 10.8346 17.5003 10.8346H2.50033C2.04009 10.8346 1.66699 10.4616 1.66699 10.0013Z" fill="#4B16C9"/>
<path d="M2.49984 12.5C2.0396 12.5 1.6665 12.8731 1.6665 13.3333C1.6665 13.7936 2.0396 14.1667 2.49984 14.1667H12.4998C12.9601 14.1667 13.3332 13.7936 13.3332 13.3333C13.3332 12.8731 12.9601 12.5 12.4998 12.5H2.49984Z" fill="#4B16C9"/>
</svg>
