<svg width="20" height="20" viewBox="0 0 20 20" fill="none" xmlns="http://www.w3.org/2000/svg">
<rect width="20" height="20" fill="#F1F1F1"/>
<g id="Group 48095948">
<g id="titulos">
</g>
<g id="Home - Vers&#195;&#163;o 02 | Deslogado">
<path d="M-1374 -2730C-1374 -2731.1 -1373.1 -2732 -1372 -2732H1908C1909.1 -2732 1910 -2731.1 1910 -2730V378C1910 379.105 1909.1 380 1908 380H-1372C-1373.1 380 -1374 379.104 -1374 378V-2730Z" fill="white"/>
<path d="M-1372 -2731H1908V-2733H-1372V-2731ZM1909 -2730V378H1911V-2730H1909ZM1908 379H-1372V381H1908V379ZM-1373 378V-2730H-1375V378H-1373ZM-1372 379C-1372.55 379 -1373 378.552 -1373 378H-1375C-1375 379.657 -1373.66 381 -1372 381V379ZM1909 378C1909 378.552 1908.55 379 1908 379V381C1909.66 381 1911 379.657 1911 378H1909ZM1908 -2731C1908.55 -2731 1909 -2730.55 1909 -2730H1911C1911 -2731.66 1909.66 -2733 1908 -2733V-2731ZM-1372 -2733C-1373.66 -2733 -1375 -2731.66 -1375 -2730H-1373C-1373 -2730.55 -1372.55 -2731 -1372 -2731V-2733Z" fill="black" fill-opacity="0.1"/>
<g id="Home - Vers&#195;&#163;o 01 | Web" clip-path="url(#clip0_702_2)">
<rect width="1920" height="2712" transform="translate(-1174 -2532)" fill="#FDFDFD"/>
<g id="rodape" clip-path="url(#clip1_702_2)">
<rect width="1920" height="318" transform="translate(-1174 -138)" fill="#F6F6F6"/>
<g id="detalhes">
<path id="Vector 158" opacity="0.3" d="M827.104 -159.04C404.968 350.914 -305.407 334.898 -707 8.81317" stroke="#E3E3E3" stroke-width="36"/>
</g>
<g id="redesSociais">
<g id="Frame">
<path id="Vector" d="M5.78357 4.16645C5.78326 4.84504 5.37157 5.45569 4.74262 5.71045C4.11367 5.96521 3.39306 5.81321 2.92059 5.32613C2.44811 4.83904 2.31813 4.11413 2.59192 3.49323C2.86572 2.87233 3.48862 2.47942 4.1669 2.49978C5.0678 2.52682 5.78398 3.26515 5.78357 4.16645ZM5.83357 7.06645H2.50024V17.4998H5.83357V7.06645ZM11.1003 7.06645H7.78357V17.4998H11.0669V12.0248C11.0669 8.97475 15.0419 8.69142 15.0419 12.0248V17.4998H18.3336V10.8914C18.3336 5.74978 12.4503 5.94145 11.0669 8.46642L11.1003 7.06645Z" fill="#39474F"/>
</g>
</g>
</g>
</g>
</g>
</g>
<defs>
<clipPath id="clip0_702_2">
<rect width="1920" height="2712" fill="white" transform="translate(-1174 -2532)"/>
</clipPath>
<clipPath id="clip1_702_2">
<rect width="1920" height="318" fill="white" transform="translate(-1174 -138)"/>
</clipPath>
</defs>
</svg>
