<svg width="217" height="77" viewBox="0 0 217 77" fill="none" xmlns="http://www.w3.org/2000/svg">
<path d="M0.495401 19.0377C0.221571 19.0377 -0.000567026 19.2601 1.08728e-06 19.5339L0.0536865 55.0155C0.0539706 55.2893 0.27554 55.5106 0.549087 55.5106H6.30038C6.57421 55.5106 6.79607 55.2887 6.79607 55.0149V49.928C6.79607 49.4042 7.49115 49.2457 7.72976 49.7118C8.46944 51.1571 9.45711 52.4362 10.6922 53.5486C12.5522 55.2259 15.0113 56.063 18.0697 56.063C20.4271 56.063 22.591 55.4651 24.5624 54.2667C26.5329 53.0705 28.0998 51.3568 29.2601 49.1281C30.4205 46.8991 31.0011 44.3113 31.0011 41.3634C31.0011 38.3052 30.4205 35.6902 29.2601 33.5155C28.0998 31.3427 26.5329 29.7026 24.5624 28.5973C22.591 27.4923 20.4271 26.9396 18.0697 26.9396C13.1416 26.9396 9.67924 28.9987 7.68204 33.1178C7.45081 33.595 6.74067 33.4445 6.74067 32.9138V19.5331C6.74067 19.2595 6.51882 19.0377 6.24527 19.0377H0.495401ZM11.3549 49.0165C10.0102 48.3731 8.91427 47.4235 8.06665 46.1713C7.21874 44.9189 6.79607 43.4083 6.79607 41.6392C6.79607 38.7302 7.66101 36.5651 9.39348 35.1465C11.1248 33.7285 13.2064 33.0181 15.6376 33.0181C18.143 33.0181 20.1967 33.747 21.7994 35.2014C23.402 36.6571 24.2036 38.766 24.2036 41.529C24.2036 44.1815 23.3924 46.2537 21.7724 47.7459C20.1504 49.238 18.1055 49.9845 15.6376 49.9845C14.1267 49.9845 12.6996 49.6621 11.3549 49.0165Z" fill="url(#paint0_linear_1_121)"/>
<path d="M35.998 19.5878C35.3165 20.2142 34.976 21.0067 34.976 21.9637C34.976 22.8852 35.3253 23.6766 36.0258 24.3398C36.7255 25.0037 37.6094 25.3346 38.6786 25.3346C39.6734 25.3346 40.5108 25.0037 41.1931 24.3398C41.8743 23.6766 42.2149 22.8852 42.2149 21.9637C42.2149 21.0067 41.8842 20.2142 41.2209 19.5878C40.5571 18.9615 39.7092 18.6482 38.6786 18.6482C37.5736 18.6482 36.6791 18.9615 35.998 19.5878ZM35.6361 27.49C35.3625 27.49 35.141 27.711 35.1404 27.9843L35.087 55.0117C35.0864 55.2855 35.3089 55.5082 35.5827 55.5082H41.3894C41.6626 55.5082 41.8845 55.287 41.8848 55.0134L41.9379 27.9863C41.9387 27.7124 41.7166 27.49 41.4425 27.49H35.6361Z" fill="url(#paint1_linear_1_121)"/>
<path d="M56.636 29.3152C55.541 30.3619 54.6388 31.6254 53.9292 33.1059C53.7 33.5848 52.9884 33.4334 52.9884 32.9025V27.9866C52.9884 27.7128 52.7666 27.4912 52.4928 27.4912H46.7418C46.4682 27.4912 46.2464 27.7125 46.2461 27.9858L46.1924 62.6944C46.1921 62.9682 46.4139 63.1906 46.6881 63.1906H52.4379C52.7115 63.1906 52.9333 62.9688 52.9333 62.695V49.9999C52.9333 49.4696 53.6415 49.3176 53.8736 49.7942C54.5854 51.2586 55.5154 52.528 56.663 53.6029C58.4128 55.2422 60.8537 56.062 63.9854 56.062C67.7432 56.062 70.7636 54.8831 73.0485 52.5246C75.3326 50.1681 76.4754 46.4287 76.4754 41.3069C76.4754 36.4441 75.323 32.8332 73.0216 30.4755C70.7181 28.1182 67.7063 26.9385 63.9854 26.9385C60.7432 26.9385 58.2938 27.731 56.636 29.3152ZM52.9884 41.3623C52.9884 39.6679 53.3841 38.184 54.1767 36.9134C54.9686 35.6425 56.0088 34.675 57.299 34.012C58.588 33.3491 59.97 33.017 61.444 33.017C63.9119 33.017 65.9005 33.7547 67.4123 35.2272C68.922 36.7023 69.6779 38.7649 69.6779 41.4174C69.6779 44.2173 68.8948 46.3455 67.329 47.8002C65.763 49.2565 63.7096 49.9834 61.167 49.9834C55.7148 49.9834 52.9884 47.1091 52.9884 41.3623Z" fill="url(#paint2_linear_1_121)"/>
<path d="M99.8879 30.7627L95.3312 35.3194C93.4797 33.4859 91.7991 32.5692 90.2891 32.5692C89.4623 32.5692 88.8152 32.7489 88.3478 33.1084C87.8804 33.45 87.6468 33.8814 87.6468 34.4027C87.6468 34.7981 87.7906 35.1666 88.0782 35.5081C88.3837 35.8317 89.1207 36.2811 90.2891 36.8563L92.9854 38.2044C95.8255 39.6065 97.7758 41.0356 98.8364 42.4916C99.8969 43.9476 100.427 45.6552 100.427 47.6145C100.427 50.2209 99.4655 52.3959 97.5422 54.1396C95.6368 55.8832 93.0753 56.755 89.8577 56.755C85.5796 56.755 82.1643 55.0833 79.6118 51.7399L84.1416 46.8056C85.0044 47.8122 86.011 48.6301 87.1614 49.2593C88.3298 49.8704 89.3634 50.176 90.2622 50.176C91.2328 50.176 92.0148 49.9423 92.6079 49.475C93.2011 49.0076 93.4977 48.4683 93.4977 47.8572C93.4977 46.7247 92.4282 45.6193 90.2891 44.5407L87.8085 43.3004C83.0631 40.9097 80.6903 37.9168 80.6903 34.3218C80.6903 32.003 81.5801 30.0257 83.3596 28.3899C85.1572 26.7362 87.449 25.9093 90.2352 25.9093C92.1406 25.9093 93.9291 26.3317 95.6008 27.1766C97.2905 28.0035 98.7195 29.1988 99.8879 30.7627ZM106.278 15.3398H113.585V29.6302C115.023 28.3899 116.47 27.4642 117.926 26.853C119.382 26.2239 120.856 25.9093 122.348 25.9093C125.26 25.9093 127.714 26.9159 129.709 28.9292C131.417 30.6728 132.27 33.2343 132.27 36.6136V56H125.017V43.1387C125.017 39.7413 124.856 37.4405 124.532 36.2361C124.209 35.0318 123.651 34.133 122.86 33.5398C122.087 32.9467 121.126 32.6501 119.975 32.6501C118.483 32.6501 117.198 33.1444 116.12 34.133C115.059 35.1217 114.322 36.4698 113.909 38.1775C113.693 39.0583 113.585 41.0715 113.585 44.2172V56H106.278V15.3398ZM153.194 25.9093C155.962 25.9093 158.559 26.6014 160.986 27.9855C163.431 29.3696 165.336 31.248 166.702 33.6207C168.068 35.9935 168.751 38.555 168.751 41.3052C168.751 44.0734 168.059 46.6618 166.675 49.0705C165.309 51.4792 163.44 53.3666 161.067 54.7327C158.694 56.0809 156.079 56.755 153.221 56.755C149.014 56.755 145.419 55.263 142.436 52.2791C139.47 49.2772 137.987 45.6372 137.987 41.3591C137.987 36.7754 139.667 32.9556 143.029 29.8998C145.977 27.2395 149.365 25.9093 153.194 25.9093ZM153.302 32.8388C151.019 32.8388 149.113 33.6387 147.585 35.2385C146.076 36.8203 145.321 38.8516 145.321 41.3321C145.321 43.8846 146.067 45.9518 147.558 47.5336C149.068 49.1155 150.974 49.9064 153.275 49.9064C155.575 49.9064 157.49 49.1065 159.018 47.5067C160.546 45.9069 161.31 43.8487 161.31 41.3321C161.31 38.8156 160.555 36.7754 159.045 35.2116C157.553 33.6297 155.638 32.8388 153.302 32.8388ZM171.529 26.6643H178.728L184.633 43.3544L190.996 26.6643H195.391L201.619 43.1656L207.524 26.6643H214.777L204.073 56H199.408L193.153 39.283L186.709 56H182.098L171.529 26.6643Z" fill="#39474F"/>
<path d="M60.6651 63.1614C58.3617 67.4749 54.5397 70.6654 49.8724 72.1627C45.2049 73.6596 40.24 73.2874 35.8571 71.1182C35.7094 71.0451 35.5317 71.1013 35.4563 71.2479L34.0339 74.0137C33.9559 74.1651 34.017 74.3542 34.1695 74.4299C39.4325 77.0477 45.3993 77.5006 51.0076 75.7019C56.6161 73.9029 61.2062 70.0635 63.9646 64.873C64.0445 64.7227 63.9843 64.5334 63.8327 64.4555L61.0676 63.0337C61.0239 63.011 60.9773 63.0004 60.9313 63.0004C60.8235 63.0004 60.7198 63.0593 60.6651 63.1614Z" fill="url(#paint3_linear_1_121)"/>
<defs>
<linearGradient id="paint0_linear_1_121" x1="-4.77087" y1="46.8226" x2="90.6253" y2="-9.47677" gradientUnits="userSpaceOnUse">
<stop stop-color="#8033CC"/>
<stop offset="1" stop-color="#05B49D"/>
</linearGradient>
<linearGradient id="paint1_linear_1_121" x1="2.39666" y1="58.9661" x2="97.7928" y2="2.66677" gradientUnits="userSpaceOnUse">
<stop stop-color="#8033CC"/>
<stop offset="1" stop-color="#05B49D"/>
</linearGradient>
<linearGradient id="paint2_linear_1_121" x1="9.03754" y1="70.2192" x2="104.434" y2="13.9198" gradientUnits="userSpaceOnUse">
<stop stop-color="#8033CC"/>
<stop offset="1" stop-color="#05B49D"/>
</linearGradient>
<linearGradient id="paint3_linear_1_121" x1="33.1456" y1="79.7273" x2="91.6071" y2="45.2255" gradientUnits="userSpaceOnUse">
<stop stop-color="#8033CC"/>
<stop offset="1" stop-color="#05B49D"/>
</linearGradient>
</defs>
</svg>
