<svg width="387" height="97" viewBox="0 0 387 97" fill="none" xmlns="http://www.w3.org/2000/svg">
<path d="M340.645 -32.6872C308.628 8.34572 255.501 38.6961 190.627 52.9389C125.748 67.1785 56.736 63.6381 -4.18692 43.0032C-6.23882 42.3077 -8.70933 42.8426 -9.75705 44.2369L-29.5284 70.5467C-30.6124 71.9874 -29.763 73.7857 -27.6434 74.5061C45.5111 99.4083 128.451 103.717 206.406 86.6062C284.363 69.4935 348.166 32.9698 386.508 -16.4058C387.619 -17.8349 386.781 -19.6366 384.674 -20.3768L346.24 -33.9027C345.632 -34.118 344.984 -34.2189 344.345 -34.2189C342.847 -34.2189 341.405 -33.6592 340.645 -32.6872Z" fill="url(#paint0_linear_709_3323)"/>
<defs>
<linearGradient id="paint0_linear_709_3323" x1="-41.8762" y1="124.899" x2="586.487" y2="-416.97" gradientUnits="userSpaceOnUse">
<stop stop-color="#8033CC"/>
<stop offset="1" stop-color="#05B49D"/>
</linearGradient>
</defs>
</svg>
