<svg width="22" height="22" viewBox="0 0 22 22" fill="none" xmlns="http://www.w3.org/2000/svg">
<path d="M6.10507 15.613L2.4682 11.9692C2.2121 11.7116 2.06836 11.3631 2.06836 10.9998C2.06836 10.6366 2.2121 10.2881 2.4682 10.0305L6.10507 6.38672L7.07445 7.36297L3.43757 10.9998L7.07445 14.6367L6.10507 15.613Z" fill="#39474F"/>
<path d="M12.7803 10.3125H3.15527V11.6875H12.7803V10.3125Z" fill="#39474F"/>
<path d="M11 19.9375V18.5625C13.0057 18.5625 14.9293 17.7657 16.3475 16.3475C17.7657 14.9293 18.5625 13.0057 18.5625 11C18.5625 8.9943 17.7657 7.07075 16.3475 5.65251C14.9293 4.23426 13.0057 3.4375 11 3.4375V2.0625C13.3704 2.0625 15.6437 3.00413 17.3198 4.68023C18.9959 6.35634 19.9375 8.62963 19.9375 11C19.9375 13.3704 18.9959 15.6437 17.3198 17.3198C15.6437 18.9959 13.3704 19.9375 11 19.9375Z" fill="#39474F"/>
</svg>
