<svg width="34" height="33" viewBox="0 0 34 33" fill="none" xmlns="http://www.w3.org/2000/svg">
<path d="M24.0621 16.3943C25.5726 14.7116 26.5 12.4957 26.5 10.0625C26.5 4.82444 22.2381 0.5625 17 0.5625C11.7619 0.5625 7.5 4.82444 7.5 10.0625C7.5 15.3006 11.7619 19.5625 17 19.5625C18.8466 19.5625 20.5661 19.0246 22.0267 18.109C27.1923 20.0553 30.7489 24.7827 31.2013 30.25H2.79987C3.10744 26.5699 4.83406 23.1381 7.6425 20.6894C8.13769 20.2584 8.18875 19.5091 7.75769 19.0139C7.32781 18.5199 6.57731 18.4676 6.08213 18.8987C2.45431 22.0598 0.375 26.6293 0.375 31.4375C0.375 32.0942 0.907 32.625 1.5625 32.625H32.4375C33.0942 32.625 33.625 32.0942 33.625 31.4375C33.625 24.9229 29.8488 19.1053 24.0621 16.3943ZM9.875 10.0625C9.875 6.13306 13.0706 2.9375 17 2.9375C20.9294 2.9375 24.125 6.13306 24.125 10.0625C24.125 13.9919 20.9294 17.1875 17 17.1875C13.0706 17.1875 9.875 13.9919 9.875 10.0625Z" fill="#4A3D90"/>
</svg>
