<svg width="141" height="140" viewBox="0 0 141 140" fill="none" xmlns="http://www.w3.org/2000/svg">
<circle cx="70.5" cy="70" r="70" fill="#C1C9D2" fill-opacity="0.15"/>
<g clip-path="url(#clip0_1611_8023)">
<path d="M78.8054 70.4358C80.4749 68.5759 81.5 66.1268 81.5 63.4375C81.5 57.6481 76.7894 52.9375 71 52.9375C65.2106 52.9375 60.5 57.6481 60.5 63.4375C60.5 69.2269 65.2106 73.9375 71 73.9375C73.0409 73.9375 74.9414 73.3429 76.5558 72.331C82.2652 74.4822 86.1961 79.7073 86.6962 85.75H55.3051C55.6451 81.6826 57.5534 77.8894 60.6575 75.1831C61.2048 74.7066 61.2612 73.8784 60.7848 73.3311C60.3097 72.7851 59.4802 72.7274 58.9329 73.2038C54.9232 76.6977 52.625 81.7482 52.625 87.0625C52.625 87.7883 53.213 88.375 53.9375 88.375H88.0625C88.7883 88.375 89.375 87.7883 89.375 87.0625C89.375 79.8621 85.2013 73.4322 78.8054 70.4358ZM63.125 63.4375C63.125 59.0944 66.6569 55.5625 71 55.5625C75.3431 55.5625 78.875 59.0944 78.875 63.4375C78.875 67.7806 75.3431 71.3125 71 71.3125C66.6569 71.3125 63.125 67.7806 63.125 63.4375Z" fill="url(#paint0_linear_1611_8023)" fill-opacity="0.6"/>
</g>
<path d="M89 63C89.8284 63 90.5 63.6716 90.5 64.5C90.5 65.3284 89.8284 66 89 66C88.1716 66 87.5 65.3284 87.5 64.5C87.5 63.6716 88.1716 63 89 63ZM89 46C92.3137 46 95 48.6863 95 52C95 54.1646 94.2474 55.2907 92.3259 56.9231C90.3986 58.5604 90 59.2969 90 61H88C88 58.526 88.787 57.3052 91.031 55.3989C92.5479 54.1102 93 53.4337 93 52C93 49.7909 91.2091 48 89 48C86.7909 48 85 49.7909 85 52V53H83V52C83 48.6863 85.6863 46 89 46Z" fill="url(#paint1_linear_1611_8023)" fill-opacity="0.6"/>
<defs>
<linearGradient id="paint0_linear_1611_8023" x1="52.625" y1="52.9375" x2="89.6721" y2="53.2509" gradientUnits="userSpaceOnUse">
<stop stop-color="#956AFB"/>
<stop offset="1" stop-color="#53AFED"/>
</linearGradient>
<linearGradient id="paint1_linear_1611_8023" x1="83" y1="46" x2="95.0976" y2="46.0592" gradientUnits="userSpaceOnUse">
<stop stop-color="#956AFB"/>
<stop offset="1" stop-color="#53AFED"/>
</linearGradient>
<clipPath id="clip0_1611_8023">
<rect width="42" height="42" fill="white" transform="translate(50 49)"/>
</clipPath>
</defs>
</svg>
