<svg width="38" height="37" viewBox="0 0 38 37" fill="none" xmlns="http://www.w3.org/2000/svg">
<path d="M26.8054 18.4358C28.4749 16.5759 29.5 14.1268 29.5 11.4375C29.5 5.64806 24.7894 0.9375 19 0.9375C13.2106 0.9375 8.5 5.64806 8.5 11.4375C8.5 17.2269 13.2106 21.9375 19 21.9375C21.0409 21.9375 22.9414 21.3429 24.5558 20.331C30.2652 22.4822 34.1961 27.7073 34.6962 33.75H3.30512C3.64506 29.6826 5.55344 25.8894 8.6575 23.1831C9.20481 22.7066 9.26125 21.8784 8.78481 21.3311C8.30969 20.7851 7.48019 20.7274 6.93288 21.2038C2.92319 24.6977 0.625 29.7482 0.625 35.0625C0.625 35.7883 1.213 36.375 1.9375 36.375H36.0625C36.7883 36.375 37.375 35.7883 37.375 35.0625C37.375 27.8621 33.2013 21.4322 26.8054 18.4358ZM11.125 11.4375C11.125 7.09444 14.6569 3.5625 19 3.5625C23.3431 3.5625 26.875 7.09444 26.875 11.4375C26.875 15.7806 23.3431 19.3125 19 19.3125C14.6569 19.3125 11.125 15.7806 11.125 11.4375Z" fill="url(#paint0_linear_1611_6932)" fill-opacity="0.6"/>
<defs>
<linearGradient id="paint0_linear_1611_6932" x1="0.625" y1="0.9375" x2="37.6721" y2="1.25086" gradientUnits="userSpaceOnUse">
<stop stop-color="#956AFB"/>
<stop offset="1" stop-color="#53AFED"/>
</linearGradient>
</defs>
</svg>
