<svg width="22" height="22" viewBox="0 0 22 22" fill="none" xmlns="http://www.w3.org/2000/svg">
<g clip-path="url(#clip0_709_11646)">
<path d="M15.0886 11.2283C15.9631 10.2541 16.5 8.97119 16.5 7.5625C16.5 4.52994 14.0326 2.0625 11 2.0625C7.96744 2.0625 5.5 4.52994 5.5 7.5625C5.5 10.5951 7.96744 13.0625 11 13.0625C12.0691 13.0625 13.0646 12.7511 13.9102 12.221C16.9008 13.3478 18.9599 16.0848 19.2218 19.25H2.77887C2.95694 17.1194 3.95656 15.1326 5.5825 13.7149C5.86919 13.4654 5.89875 13.0316 5.64919 12.7449C5.40031 12.4589 4.96581 12.4286 4.67913 12.6782C2.57881 14.5083 1.375 17.1538 1.375 19.9375C1.375 20.3177 1.683 20.625 2.0625 20.625H19.9375C20.3177 20.625 20.625 20.3177 20.625 19.9375C20.625 16.1659 18.4388 12.7978 15.0886 11.2283ZM6.875 7.5625C6.875 5.28756 8.72506 3.4375 11 3.4375C13.2749 3.4375 15.125 5.28756 15.125 7.5625C15.125 9.83744 13.2749 11.6875 11 11.6875C8.72506 11.6875 6.875 9.83744 6.875 7.5625Z" fill="#39474F"/>
</g>
<defs>
<clipPath id="clip0_709_11646">
<rect width="22" height="22" fill="white"/>
</clipPath>
</defs>
</svg>
