<svg width="69" height="69" viewBox="0 0 69 69" fill="none" xmlns="http://www.w3.org/2000/svg">
<g opacity="0.3">
<path d="M23.2115 27.1696L42.704 7.67706C43.0156 7.35015 43.3903 7.0899 43.8054 6.91208C44.2205 6.73427 44.6674 6.64258 45.119 6.64258C45.5706 6.64258 46.0175 6.73427 46.4326 6.91208C46.8478 7.0899 47.2224 7.35015 47.534 7.67706C47.8609 7.98863 48.1212 8.36332 48.299 8.77844C48.4768 9.19356 48.5685 9.64046 48.5685 10.0921C48.5685 10.5437 48.4768 10.9906 48.299 11.4057C48.1212 11.8208 47.8609 12.1955 47.534 12.5071L28.0415 31.9996C27.7146 32.3111 27.4544 32.6858 27.2765 33.1009C27.0987 33.5161 27.007 33.963 27.007 34.4146C27.007 34.8662 27.0987 35.3131 27.2765 35.7282C27.4544 36.1433 27.7146 36.518 28.0415 36.8296L47.7065 56.4946C48.3364 57.1373 48.6871 58.0026 48.6826 58.9024C48.678 59.8023 48.3185 60.664 47.6822 61.3003C47.0459 61.9366 46.1842 62.2961 45.2844 62.3006C44.3845 62.3052 43.5192 61.9544 42.8765 61.3246L23.384 41.8321C19.244 37.6921 19.244 31.1371 23.2115 27.1696Z" fill="#FDFDFD"/>
</g>
</svg>
