<svg width="69" height="69" viewBox="0 0 69 69" fill="none" xmlns="http://www.w3.org/2000/svg">
<g opacity="0.3">
<path d="M45.7885 27.1696L26.296 7.67706C25.9844 7.35015 25.6097 7.0899 25.1946 6.91208C24.7795 6.73427 24.3326 6.64258 23.881 6.64258C23.4294 6.64258 22.9825 6.73427 22.5674 6.91208C22.1522 7.0899 21.7776 7.35015 21.466 7.67706C21.1391 7.98863 20.8788 8.36332 20.701 8.77844C20.5232 9.19356 20.4315 9.64046 20.4315 10.0921C20.4315 10.5437 20.5232 10.9906 20.701 11.4057C20.8788 11.8208 21.1391 12.1955 21.466 12.5071L40.9585 31.9996C41.2854 32.3111 41.5456 32.6858 41.7235 33.1009C41.9013 33.5161 41.993 33.963 41.993 34.4146C41.993 34.8662 41.9013 35.3131 41.7235 35.7282C41.5456 36.1433 41.2854 36.518 40.9585 36.8296L21.2935 56.4946C20.6636 57.1373 20.3129 58.0026 20.3174 58.9024C20.322 59.8023 20.6815 60.664 21.3178 61.3003C21.9541 61.9366 22.8158 62.2961 23.7156 62.3006C24.6155 62.3052 25.4808 61.9544 26.1235 61.3246L45.616 41.8321C49.756 37.6921 49.756 31.1371 45.7885 27.1696Z" fill="#FDFDFD"/>
</g>
</svg>
