<svg width="16" height="17" viewBox="0 0 16 17" fill="none" xmlns="http://www.w3.org/2000/svg">
<path d="M13.3334 11.7666C12.9743 11.7665 12.6189 11.8378 12.2887 11.9762C11.9584 12.1147 11.6602 12.3174 11.412 12.5721L5.24605 9.1675C5.36548 8.72733 5.36548 8.26416 5.24605 7.82399L11.412 4.41942C11.861 4.87626 12.4643 5.15676 13.1089 5.20839C13.7535 5.26002 14.3952 5.07922 14.9137 4.69987C15.4323 4.32053 15.7921 3.76866 15.9257 3.14765C16.0594 2.52665 15.9578 1.87912 15.6399 1.32637C15.322 0.773628 14.8097 0.353592 14.1988 0.144955C13.588 -0.0636816 12.9207 -0.0466029 12.3217 0.192991C11.7228 0.432586 11.2335 0.878256 10.9454 1.44651C10.6573 2.01476 10.5902 2.66661 10.7567 3.27994L4.59071 6.6845C4.2224 6.30763 3.74761 6.04752 3.22743 5.93764C2.70724 5.82776 2.16545 5.87313 1.67176 6.06791C1.17807 6.26269 0.755049 6.59798 0.457125 7.03065C0.159202 7.46331 0 7.97356 0 8.49574C0 9.01793 0.159202 9.52818 0.457125 9.96084C0.755049 10.3935 1.17807 10.7288 1.67176 10.9236C2.16545 11.1184 2.70724 11.1637 3.22743 11.0538C3.74761 10.944 4.2224 10.6839 4.59071 10.307L10.7567 13.7116C10.6137 14.2397 10.6428 14.7986 10.84 15.3097C11.0371 15.8208 11.3924 16.2585 11.856 16.5614C12.3195 16.8643 12.868 17.0171 13.4246 16.9985C13.9811 16.9798 14.5178 16.7907 14.9592 16.4575C15.4006 16.1243 15.7247 15.6638 15.8859 15.1407C16.0471 14.6176 16.0373 14.0581 15.858 13.5407C15.6787 13.0233 15.3388 12.574 14.886 12.2558C14.4332 11.9376 13.8903 11.7666 13.3334 11.7666Z" fill="#4B16C9"/>
</svg>
