<svg width="23" height="23" viewBox="0 0 23 23" fill="none" xmlns="http://www.w3.org/2000/svg">
<g clip-path="url(#clip0_709_5682)">
<path d="M8.625 5.03125V17.9688" stroke="#4B16C9" stroke-linecap="round" stroke-linejoin="round"/>
<path d="M2.15626 15.0219C2.15535 14.8563 2.21231 14.6957 2.31731 14.5677C2.42231 14.4398 2.56874 14.3525 2.73126 14.3211C3.3777 14.1838 3.9574 13.8287 4.37334 13.3152C4.78929 12.8017 5.01625 12.1609 5.01625 11.5C5.01625 10.8391 4.78929 10.1983 4.37334 9.6848C3.9574 9.17127 3.3777 8.81616 2.73126 8.67891C2.56874 8.64748 2.42231 8.56023 2.31731 8.43227C2.21231 8.3043 2.15535 8.14365 2.15626 7.97813V5.75C2.15626 5.55938 2.23199 5.37656 2.36678 5.24177C2.50157 5.10698 2.68439 5.03125 2.87501 5.03125H20.125C20.3156 5.03125 20.4985 5.10698 20.6332 5.24177C20.768 5.37656 20.8438 5.55938 20.8438 5.75V7.97813C20.8447 8.14365 20.7877 8.3043 20.6827 8.43227C20.5777 8.56023 20.4313 8.64748 20.2688 8.67891C19.6223 8.81616 19.0426 9.17127 18.6267 9.6848C18.2107 10.1983 17.9838 10.8391 17.9838 11.5C17.9838 12.1609 18.2107 12.8017 18.6267 13.3152C19.0426 13.8287 19.6223 14.1838 20.2688 14.3211C20.4313 14.3525 20.5777 14.4398 20.6827 14.5677C20.7877 14.6957 20.8447 14.8563 20.8438 15.0219V17.25C20.8438 17.4406 20.768 17.6234 20.6332 17.7582C20.4985 17.893 20.3156 17.9688 20.125 17.9688H2.87501C2.68439 17.9688 2.50157 17.893 2.36678 17.7582C2.23199 17.6234 2.15626 17.4406 2.15626 17.25V15.0219Z" stroke="#4B16C9" stroke-linecap="round" stroke-linejoin="round"/>
</g>
<defs>
<clipPath id="clip0_709_5682">
<rect width="23" height="23" fill="white"/>
</clipPath>
</defs>
</svg>
