<svg width="38" height="38" viewBox="0 0 38 38" fill="none" xmlns="http://www.w3.org/2000/svg">
<g clip-path="url(#clip0_709_11640)">
<path d="M14.25 8.3125V29.6875" stroke="#4A3D90" stroke-width="2" stroke-linecap="round" stroke-linejoin="round"/>
<path d="M3.56252 24.8187C3.56101 24.5453 3.65513 24.2799 3.82861 24.0684C4.00208 23.857 4.244 23.7129 4.51252 23.6609C5.58055 23.4342 6.53831 22.8475 7.22552 21.999C7.91274 21.1506 8.28772 20.0918 8.28772 19C8.28772 17.9082 7.91274 16.8494 7.22552 16.001C6.53831 15.1525 5.58055 14.5658 4.51252 14.3391C4.244 14.2871 4.00208 14.143 3.82861 13.9316C3.65513 13.7201 3.56101 13.4547 3.56252 13.1813V9.5C3.56252 9.18506 3.68763 8.88301 3.91033 8.66031C4.13303 8.43761 4.43507 8.3125 4.75002 8.3125H33.25C33.565 8.3125 33.867 8.43761 34.0897 8.66031C34.3124 8.88301 34.4375 9.18506 34.4375 9.5V13.1813C34.439 13.4547 34.3449 13.7201 34.1714 13.9316C33.998 14.143 33.756 14.2871 33.4875 14.3391C32.4195 14.5658 31.4617 15.1525 30.7745 16.001C30.0873 16.8494 29.7123 17.9082 29.7123 19C29.7123 20.0918 30.0873 21.1506 30.7745 21.999C31.4617 22.8475 32.4195 23.4342 33.4875 23.6609C33.756 23.7129 33.998 23.857 34.1714 24.0684C34.3449 24.2799 34.439 24.5453 34.4375 24.8187V28.5C34.4375 28.8149 34.3124 29.117 34.0897 29.3397C33.867 29.5624 33.565 29.6875 33.25 29.6875H4.75002C4.43507 29.6875 4.13303 29.5624 3.91033 29.3397C3.68763 29.117 3.56252 28.8149 3.56252 28.5V24.8187Z" stroke="#4A3D90" stroke-width="2" stroke-linecap="round" stroke-linejoin="round"/>
</g>
<defs>
<clipPath id="clip0_709_11640">
<rect width="38" height="38" fill="white"/>
</clipPath>
</defs>
</svg>
