<svg width="20" height="20" viewBox="0 0 20 20" fill="none" xmlns="http://www.w3.org/2000/svg">
<rect width="20" height="20" fill="#F1F1F1"/>
<g id="Group 48095948">
<g id="titulos">
</g>
<g id="Home - Vers&#195;&#163;o 02 | Deslogado">
<path d="M-1374 -2778C-1374 -2779.1 -1373.1 -2780 -1372 -2780H1908C1909.1 -2780 1910 -2779.1 1910 -2778V330C1910 331.105 1909.1 332 1908 332H-1372C-1373.1 332 -1374 331.104 -1374 330V-2778Z" fill="white"/>
<path d="M-1372 -2779H1908V-2781H-1372V-2779ZM1909 -2778V330H1911V-2778H1909ZM1908 331H-1372V333H1908V331ZM-1373 330V-2778H-1375V330H-1373ZM-1372 331C-1372.55 331 -1373 330.552 -1373 330H-1375C-1375 331.657 -1373.66 333 -1372 333V331ZM1909 330C1909 330.552 1908.55 331 1908 331V333C1909.66 333 1911 331.657 1911 330H1909ZM1908 -2779C1908.55 -2779 1909 -2778.55 1909 -2778H1911C1911 -2779.66 1909.66 -2781 1908 -2781V-2779ZM-1372 -2781C-1373.66 -2781 -1375 -2779.66 -1375 -2778H-1373C-1373 -2778.55 -1372.55 -2779 -1372 -2779V-2781Z" fill="black" fill-opacity="0.1"/>
<g id="Home - Vers&#195;&#163;o 01 | Web" clip-path="url(#clip0_702_2)">
<rect width="1920" height="2712" transform="translate(-1174 -2580)" fill="#FDFDFD"/>
<g id="rodape" clip-path="url(#clip1_702_2)">
<rect width="1920" height="318" transform="translate(-1174 -186)" fill="#F6F6F6"/>
<g id="detalhes">
<path id="Vector 158" opacity="0.3" d="M827.104 -207.04C404.968 302.914 -305.407 286.898 -707 -39.1868" stroke="#E3E3E3" stroke-width="36"/>
</g>
<g id="redesSociais">
<g id="Frame">
<path id="Vector" d="M18.5104 4.71386C17.8743 4.99528 17.1996 5.18011 16.5088 5.26225C17.2366 4.82659 17.7812 4.14124 18.0411 3.33386C17.3573 3.74016 16.6088 4.02613 15.8282 4.17933C15.1693 3.47637 14.2483 3.07801 13.2848 3.0791C11.3605 3.0791 9.79975 4.63933 9.79975 6.56451C9.79975 6.83764 9.83109 7.1025 9.88967 7.35806C6.99206 7.21219 4.42506 5.82553 2.70565 3.71666C2.39608 4.24855 2.23338 4.85314 2.2342 5.46855C2.2342 6.67765 2.84967 7.74485 3.78458 8.36965C3.23115 8.35215 2.6899 8.20269 2.20599 7.9336C2.20545 7.94824 2.20545 7.96288 2.20545 7.97672C2.20545 9.66582 3.40683 11.0748 5.00166 11.3947C4.70234 11.4757 4.3936 11.5167 4.08352 11.5164C3.85831 11.5164 3.63976 11.4957 3.42733 11.4549C3.8711 12.8392 5.15739 13.8471 6.683 13.8747C5.44845 14.8437 3.92391 15.3693 2.35453 15.3671C2.07677 15.3673 1.79925 15.3509 1.52344 15.3181C3.1167 16.3423 4.97127 16.8859 6.86535 16.8839C13.2763 16.8839 16.7817 11.5734 16.7817 6.96808C16.7817 6.8174 16.778 6.6662 16.7713 6.51713C17.4536 6.0242 18.0425 5.41355 18.5104 4.71386Z" fill="#39474F"/>
</g>
</g>
</g>
</g>
</g>
</g>
<defs>
<clipPath id="clip0_702_2">
<rect width="1920" height="2712" fill="white" transform="translate(-1174 -2580)"/>
</clipPath>
<clipPath id="clip1_702_2">
<rect width="1920" height="318" fill="white" transform="translate(-1174 -186)"/>
</clipPath>
</defs>
</svg>
