<svg width="20" height="20" viewBox="0 0 20 20" fill="none" xmlns="http://www.w3.org/2000/svg">
<rect width="20" height="20" fill="#F1F1F1"/>
<g id="Group 48095948">
<g id="titulos">
</g>
<g id="Home - Vers&#195;&#163;o 02 | Deslogado">
<path d="M-1374 -2754C-1374 -2755.1 -1373.1 -2756 -1372 -2756H1908C1909.1 -2756 1910 -2755.1 1910 -2754V354C1910 355.105 1909.1 356 1908 356H-1372C-1373.1 356 -1374 355.104 -1374 354V-2754Z" fill="white"/>
<path d="M-1372 -2755H1908V-2757H-1372V-2755ZM1909 -2754V354H1911V-2754H1909ZM1908 355H-1372V357H1908V355ZM-1373 354V-2754H-1375V354H-1373ZM-1372 355C-1372.55 355 -1373 354.552 -1373 354H-1375C-1375 355.657 -1373.66 357 -1372 357V355ZM1909 354C1909 354.552 1908.55 355 1908 355V357C1909.66 357 1911 355.657 1911 354H1909ZM1908 -2755C1908.55 -2755 1909 -2754.55 1909 -2754H1911C1911 -2755.66 1909.66 -2757 1908 -2757V-2755ZM-1372 -2757C-1373.66 -2757 -1375 -2755.66 -1375 -2754H-1373C-1373 -2754.55 -1372.55 -2755 -1372 -2755V-2757Z" fill="black" fill-opacity="0.1"/>
<g id="Home - Vers&#195;&#163;o 01 | Web" clip-path="url(#clip0_702_2)">
<rect width="1920" height="2712" transform="translate(-1174 -2556)" fill="#FDFDFD"/>
<g id="rodape" clip-path="url(#clip1_702_2)">
<rect width="1920" height="318" transform="translate(-1174 -162)" fill="#F6F6F6"/>
<g id="detalhes">
<path id="Vector 158" opacity="0.3" d="M827.104 -183.04C404.968 326.914 -305.407 310.898 -707 -15.1868" stroke="#E3E3E3" stroke-width="36"/>
</g>
<g id="redesSociais">
<g id="Frame">
<path id="Vector" d="M10.2036 3.33301C10.6487 3.33546 11.7622 3.34622 12.9454 3.39362L13.3649 3.41191C14.5562 3.46831 15.7464 3.56466 16.3367 3.72926C17.1242 3.95047 17.7431 4.59592 17.9522 5.41411C18.2853 6.71335 18.327 9.24918 18.3322 9.86284L18.3329 9.99001V9.99892C18.3329 9.99892 18.3329 10.002 18.3329 10.0079L18.3322 10.1351C18.327 10.7488 18.2853 13.2846 17.9522 14.5838C17.7402 15.405 17.1212 16.0505 16.3367 16.2687C15.7464 16.4333 14.5562 16.5296 13.3649 16.586L12.9454 16.6043C11.7622 16.6517 10.6487 16.6624 10.2036 16.6649L10.0082 16.6656H9.99957C9.99957 16.6656 9.99666 16.6656 9.99091 16.6656L9.79574 16.6649C8.85374 16.6598 4.91509 16.6172 3.66242 16.2687C2.87499 16.0474 2.25609 15.402 2.04688 14.5838C1.71383 13.2846 1.67219 10.7488 1.66699 10.1351V9.86284C1.67219 9.24918 1.71383 6.71335 2.04688 5.41411C2.25899 4.59289 2.87789 3.94744 3.66242 3.72926C4.91509 3.3807 8.85374 3.33819 9.79574 3.33301H10.2036ZM8.33292 7.08229V12.9156L13.3329 9.99892L8.33292 7.08229Z" fill="#39474F"/>
</g>
</g>
</g>
</g>
</g>
</g>
<defs>
<clipPath id="clip0_702_2">
<rect width="1920" height="2712" fill="white" transform="translate(-1174 -2556)"/>
</clipPath>
<clipPath id="clip1_702_2">
<rect width="1920" height="318" fill="white" transform="translate(-1174 -162)"/>
</clipPath>
</defs>
</svg>
